solid 
 facet normal  1.000000e+00  0.000000e+00  0.000000e+00
   outer loop
     vertex  9.751407e+01  5.399678e+00  6.961480e+01
     vertex  9.751407e+01  5.407186e+00  6.953766e+01
     vertex  9.751407e+01  5.416505e+00  6.950000e+01
   endloop
 endfacet
 facet normal  1.000000e+00  0.000000e+00  0.000000e+00
   outer loop
     vertex  9.751407e+01  5.399678e+00  6.961480e+01
     vertex  9.751407e+01  5.401559e+00  6.957605e+01
     vertex  9.751407e+01  5.407186e+00  6.953766e+01
   endloop
 endfacet
 facet normal  1.000000e+00  0.000000e+00  0.000000e+00
   outer loop
     vertex  9.751407e+01  1.082535e+01  6.950000e+01
     vertex  9.751407e+01  5.399678e+00  6.961480e+01
     vertex  9.751407e+01  5.416505e+00  6.950000e+01
   endloop
 endfacet
 facet normal  1.000000e+00  0.000000e+00  0.000000e+00
   outer loop
     vertex  9.751407e+01  1.082535e+01  8.950000e+01
     vertex  9.751407e+01  5.399678e+00  8.950000e+01
     vertex  9.751407e+01  5.399678e+00  6.961480e+01
   endloop
 endfacet
 facet normal  1.000000e+00  0.000000e+00  0.000000e+00
   outer loop
     vertex  9.751407e+01  1.082535e+01  8.950000e+01
     vertex  9.751407e+01  5.399678e+00  6.961480e+01
     vertex  9.751407e+01  1.082535e+01  6.950000e+01
   endloop
 endfacet
 facet normal  0.000000e+00 -9.707237e-01 -2.401988e-01
   outer loop
     vertex  7.751407e+01  5.407186e+00  6.953766e+01
     vertex  9.751407e+01  5.416505e+00  6.950000e+01
     vertex  9.751407e+01  5.407186e+00  6.953766e+01
   endloop
 endfacet
 facet normal  0.000000e+00 -9.707237e-01 -2.401988e-01
   outer loop
     vertex  7.751407e+01  5.407186e+00  6.953766e+01
     vertex  7.751407e+01  5.416505e+00  6.950000e+01
     vertex  9.751407e+01  5.416505e+00  6.950000e+01
   endloop
 endfacet
 facet normal  0.000000e+00 -9.894274e-01 -1.450291e-01
   outer loop
     vertex  7.751407e+01  5.401559e+00  6.957605e+01
     vertex  9.751407e+01  5.407186e+00  6.953766e+01
     vertex  9.751407e+01  5.401559e+00  6.957605e+01
   endloop
 endfacet
 facet normal  0.000000e+00 -9.894274e-01 -1.450291e-01
   outer loop
     vertex  7.751407e+01  5.401559e+00  6.957605e+01
     vertex  7.751407e+01  5.407186e+00  6.953766e+01
     vertex  9.751407e+01  5.407186e+00  6.953766e+01
   endloop
 endfacet
 facet normal  0.000000e+00 -9.988234e-01 -4.849510e-02
   outer loop
     vertex  7.751407e+01  5.399678e+00  6.961480e+01
     vertex  9.751407e+01  5.401559e+00  6.957605e+01
     vertex  9.751407e+01  5.399678e+00  6.961480e+01
   endloop
 endfacet
 facet normal  0.000000e+00 -9.988234e-01 -4.849510e-02
   outer loop
     vertex  7.751407e+01  5.399678e+00  6.961480e+01
     vertex  7.751407e+01  5.401559e+00  6.957605e+01
     vertex  9.751407e+01  5.401559e+00  6.957605e+01
   endloop
 endfacet
 facet normal -0.000000e+00 -1.000000e+00 -4.913182e-16
   outer loop
     vertex  9.751407e+01  5.399678e+00  6.961480e+01
     vertex  7.751407e+01  5.399678e+00  8.950000e+01
     vertex  7.751407e+01  5.399678e+00  6.961480e+01
   endloop
 endfacet
 facet normal  0.000000e+00 -1.000000e+00 -4.913182e-16
   outer loop
     vertex  9.751407e+01  5.399678e+00  6.961480e+01
     vertex  9.751407e+01  5.399678e+00  8.950000e+01
     vertex  7.751407e+01  5.399678e+00  8.950000e+01
   endloop
 endfacet
 facet normal  0.000000e+00 -0.000000e+00  1.000000e+00
   outer loop
     vertex  9.751407e+01  5.399678e+00  8.950000e+01
     vertex  9.751407e+01  1.082535e+01  8.950000e+01
     vertex  7.751407e+01  1.082535e+01  8.950000e+01
   endloop
 endfacet
 facet normal  0.000000e+00  0.000000e+00  1.000000e+00
   outer loop
     vertex  9.751407e+01  5.399678e+00  8.950000e+01
     vertex  7.751407e+01  1.082535e+01  8.950000e+01
     vertex  7.751407e+01  5.399678e+00  8.950000e+01
   endloop
 endfacet
 facet normal  0.000000e+00  1.000000e+00 -0.000000e+00
   outer loop
     vertex  9.751407e+01  1.082535e+01  6.950000e+01
     vertex  7.751407e+01  1.082535e+01  8.950000e+01
     vertex  9.751407e+01  1.082535e+01  8.950000e+01
   endloop
 endfacet
 facet normal  0.000000e+00  1.000000e+00  0.000000e+00
   outer loop
     vertex  9.751407e+01  1.082535e+01  6.950000e+01
     vertex  7.751407e+01  1.082535e+01  6.950000e+01
     vertex  7.751407e+01  1.082535e+01  8.950000e+01
   endloop
 endfacet
 facet normal  0.000000e+00  0.000000e+00 -1.000000e+00
   outer loop
     vertex  7.751407e+01  1.082535e+01  6.950000e+01
     vertex  9.751407e+01  1.082535e+01  6.950000e+01
     vertex  9.751407e+01  5.416505e+00  6.950000e+01
   endloop
 endfacet
 facet normal  0.000000e+00  0.000000e+00 -1.000000e+00
   outer loop
     vertex  7.751407e+01  1.082535e+01  6.950000e+01
     vertex  9.751407e+01  5.416505e+00  6.950000e+01
     vertex  7.751407e+01  5.416505e+00  6.950000e+01
   endloop
 endfacet
 facet normal -1.000000e+00  0.000000e+00  0.000000e+00
   outer loop
     vertex  7.751407e+01  5.399678e+00  6.961480e+01
     vertex  7.751407e+01  5.399678e+00  8.950000e+01
     vertex  7.751407e+01  1.082535e+01  8.950000e+01
   endloop
 endfacet
 facet normal -1.000000e+00  0.000000e+00  0.000000e+00
   outer loop
     vertex  7.751407e+01  5.399678e+00  6.961480e+01
     vertex  7.751407e+01  1.082535e+01  8.950000e+01
     vertex  7.751407e+01  1.082535e+01  6.950000e+01
   endloop
 endfacet
 facet normal -1.000000e+00  0.000000e+00  0.000000e+00
   outer loop
     vertex  7.751407e+01  5.416505e+00  6.950000e+01
     vertex  7.751407e+01  5.407186e+00  6.953766e+01
     vertex  7.751407e+01  5.401559e+00  6.957605e+01
   endloop
 endfacet
 facet normal -1.000000e+00  0.000000e+00  0.000000e+00
   outer loop
     vertex  7.751407e+01  5.416505e+00  6.950000e+01
     vertex  7.751407e+01  5.401559e+00  6.957605e+01
     vertex  7.751407e+01  5.399678e+00  6.961480e+01
   endloop
 endfacet
 facet normal -1.000000e+00  0.000000e+00  0.000000e+00
   outer loop
     vertex  7.751407e+01  5.416505e+00  6.950000e+01
     vertex  7.751407e+01  5.399678e+00  6.961480e+01
     vertex  7.751407e+01  1.082535e+01  6.950000e+01
   endloop
 endfacet
endsolid
