solid 
 facet normal  4.423335e-02  0.000000e+00  9.990212e-01
   outer loop
     vertex  1.767602e-02  1.500000e-01  1.992174e-01
     vertex -4.898587e-17  1.500000e-01  2.000000e-01
     vertex -4.898587e-17 -1.500000e-01  2.000000e-01
   endloop
 endfacet
 facet normal  4.423335e-02  0.000000e+00  9.990212e-01
   outer loop
     vertex  1.767602e-02  1.500000e-01  1.992174e-01
     vertex -4.898587e-17 -1.500000e-01  2.000000e-01
     vertex  1.767602e-02 -1.500000e-01  1.992174e-01
   endloop
 endfacet
 facet normal  1.323539e-01  0.000000e+00  9.912025e-01
   outer loop
     vertex  3.521370e-02  1.500000e-01  1.968756e-01
     vertex  1.767602e-02  1.500000e-01  1.992174e-01
     vertex  1.767602e-02 -1.500000e-01  1.992174e-01
   endloop
 endfacet
 facet normal  1.323539e-01  0.000000e+00  9.912025e-01
   outer loop
     vertex  3.521370e-02  1.500000e-01  1.968756e-01
     vertex  1.767602e-02 -1.500000e-01  1.992174e-01
     vertex  3.521370e-02 -1.500000e-01  1.968756e-01
   endloop
 endfacet
 facet normal  2.194385e-01  0.000000e+00  9.756263e-01
   outer loop
     vertex  5.247579e-02  1.500000e-01  1.929930e-01
     vertex  3.521370e-02  1.500000e-01  1.968756e-01
     vertex  3.521370e-02 -1.500000e-01  1.968756e-01
   endloop
 endfacet
 facet normal  2.194385e-01  0.000000e+00  9.756263e-01
   outer loop
     vertex  5.247579e-02  1.500000e-01  1.929930e-01
     vertex  3.521370e-02 -1.500000e-01  1.968756e-01
     vertex  5.247579e-02 -1.500000e-01  1.929930e-01
   endloop
 endfacet
 facet normal  3.048058e-01  0.000000e+00  9.524145e-01
   outer loop
     vertex  6.932718e-02  1.500000e-01  1.876000e-01
     vertex  5.247579e-02  1.500000e-01  1.929930e-01
     vertex  5.247579e-02 -1.500000e-01  1.929930e-01
   endloop
 endfacet
 facet normal  3.048058e-01  0.000000e+00  9.524145e-01
   outer loop
     vertex  6.932718e-02  1.500000e-01  1.876000e-01
     vertex  5.247579e-02 -1.500000e-01  1.929930e-01
     vertex  6.932718e-02 -1.500000e-01  1.876000e-01
   endloop
 endfacet
 facet normal  3.877875e-01  0.000000e+00  9.217488e-01
   outer loop
     vertex  8.563600e-02  1.500000e-01  1.807387e-01
     vertex  6.932718e-02  1.500000e-01  1.876000e-01
     vertex  6.932718e-02 -1.500000e-01  1.876000e-01
   endloop
 endfacet
 facet normal  3.877875e-01  0.000000e+00  9.217488e-01
   outer loop
     vertex  8.563600e-02  1.500000e-01  1.807387e-01
     vertex  6.932718e-02 -1.500000e-01  1.876000e-01
     vertex  8.563600e-02 -1.500000e-01  1.807387e-01
   endloop
 endfacet
 facet normal  4.677343e-01  0.000000e+00  8.838691e-01
   outer loop
     vertex  1.012746e-01  1.500000e-01  1.724629e-01
     vertex  8.563600e-02  1.500000e-01  1.807387e-01
     vertex  8.563600e-02 -1.500000e-01  1.807387e-01
   endloop
 endfacet
 facet normal  4.677343e-01  0.000000e+00  8.838691e-01
   outer loop
     vertex  1.012746e-01  1.500000e-01  1.724629e-01
     vertex  8.563600e-02 -1.500000e-01  1.807387e-01
     vertex  1.012746e-01 -1.500000e-01  1.724629e-01
   endloop
 endfacet
 facet normal  5.440204e-01  0.000000e+00  8.390720e-01
   outer loop
     vertex  1.161206e-01  1.500000e-01  1.628374e-01
     vertex  1.012746e-01  1.500000e-01  1.724629e-01
     vertex  1.012746e-01 -1.500000e-01  1.724629e-01
   endloop
 endfacet
 facet normal  5.440204e-01  0.000000e+00  8.390720e-01
   outer loop
     vertex  1.161206e-01  1.500000e-01  1.628374e-01
     vertex  1.012746e-01 -1.500000e-01  1.724629e-01
     vertex  1.161206e-01 -1.500000e-01  1.628374e-01
   endloop
 endfacet
 facet normal  6.160488e-01  0.000000e+00  7.877080e-01
   outer loop
     vertex  1.300578e-01  1.500000e-01  1.519374e-01
     vertex  1.161206e-01 -1.500000e-01  1.628374e-01
     vertex  1.300578e-01 -1.500000e-01  1.519374e-01
   endloop
 endfacet
 facet normal  6.160488e-01  0.000000e+00  7.877080e-01
   outer loop
     vertex  1.300578e-01  1.500000e-01  1.519374e-01
     vertex  1.161206e-01  1.500000e-01  1.628374e-01
     vertex  1.161206e-01 -1.500000e-01  1.628374e-01
   endloop
 endfacet
 facet normal  6.832558e-01  0.000000e+00  7.301791e-01
   outer loop
     vertex  1.429771e-01  1.500000e-01  1.398483e-01
     vertex  1.300578e-01 -1.500000e-01  1.519374e-01
     vertex  1.429771e-01 -1.500000e-01  1.398483e-01
   endloop
 endfacet
 facet normal  6.832558e-01  0.000000e+00  7.301791e-01
   outer loop
     vertex  1.429771e-01  1.500000e-01  1.398483e-01
     vertex  1.300578e-01  1.500000e-01  1.519374e-01
     vertex  1.300578e-01 -1.500000e-01  1.519374e-01
   endloop
 endfacet
 facet normal  7.451154e-01  0.000000e+00  6.669355e-01
   outer loop
     vertex  1.547774e-01  1.500000e-01  1.266648e-01
     vertex  1.429771e-01 -1.500000e-01  1.398483e-01
     vertex  1.547774e-01 -1.500000e-01  1.266648e-01
   endloop
 endfacet
 facet normal  7.451154e-01  0.000000e+00  6.669355e-01
   outer loop
     vertex  1.547774e-01  1.500000e-01  1.266648e-01
     vertex  1.429771e-01  1.500000e-01  1.398483e-01
     vertex  1.429771e-01 -1.500000e-01  1.398483e-01
   endloop
 endfacet
 facet normal  8.011435e-01  0.000000e+00  5.984723e-01
   outer loop
     vertex  1.653664e-01  1.500000e-01  1.124899e-01
     vertex  1.547774e-01 -1.500000e-01  1.266648e-01
     vertex  1.653664e-01 -1.500000e-01  1.124899e-01
   endloop
 endfacet
 facet normal  8.011435e-01  0.000000e+00  5.984723e-01
   outer loop
     vertex  1.653664e-01  1.500000e-01  1.124899e-01
     vertex  1.547774e-01  1.500000e-01  1.266648e-01
     vertex  1.547774e-01 -1.500000e-01  1.266648e-01
   endloop
 endfacet
 facet normal  8.509015e-01  0.000000e+00  5.253252e-01
   outer loop
     vertex  1.746611e-01  1.500000e-01  9.743457e-02
     vertex  1.653664e-01 -1.500000e-01  1.124899e-01
     vertex  1.746611e-01 -1.500000e-01  9.743457e-02
   endloop
 endfacet
 facet normal  8.509015e-01  0.000000e+00  5.253252e-01
   outer loop
     vertex  1.746611e-01  1.500000e-01  9.743457e-02
     vertex  1.653664e-01  1.500000e-01  1.124899e-01
     vertex  1.653664e-01 -1.500000e-01  1.124899e-01
   endloop
 endfacet
 facet normal  8.940001e-01  0.000000e+00  4.480668e-01
   outer loop
     vertex  1.825889e-01  1.500000e-01  8.161672e-02
     vertex  1.746611e-01 -1.500000e-01  9.743457e-02
     vertex  1.825889e-01 -1.500000e-01  8.161672e-02
   endloop
 endfacet
 facet normal  8.940001e-01  0.000000e+00  4.480668e-01
   outer loop
     vertex  1.825889e-01  1.500000e-01  8.161672e-02
     vertex  1.746611e-01  1.500000e-01  9.743457e-02
     vertex  1.746611e-01 -1.500000e-01  9.743457e-02
   endloop
 endfacet
 facet normal  9.301019e-01  0.000000e+00  3.673016e-01
   outer loop
     vertex  1.890877e-01  1.500000e-01  6.516011e-02
     vertex  1.825889e-01  1.500000e-01  8.161672e-02
     vertex  1.825889e-01 -1.500000e-01  8.161672e-02
   endloop
 endfacet
 facet normal  9.301019e-01  0.000000e+00  3.673016e-01
   outer loop
     vertex  1.890877e-01  1.500000e-01  6.516011e-02
     vertex  1.825889e-01 -1.500000e-01  8.161672e-02
     vertex  1.890877e-01 -1.500000e-01  6.516011e-02
   endloop
 endfacet
 facet normal  9.589244e-01  0.000000e+00  2.836618e-01
   outer loop
     vertex  1.941066e-01  1.500000e-01  4.819354e-02
     vertex  1.890877e-01  1.500000e-01  6.516011e-02
     vertex  1.890877e-01 -1.500000e-01  6.516011e-02
   endloop
 endfacet
 facet normal  9.589244e-01  0.000000e+00  2.836618e-01
   outer loop
     vertex  1.941066e-01  1.500000e-01  4.819354e-02
     vertex  1.890877e-01 -1.500000e-01  6.516011e-02
     vertex  1.941066e-01 -1.500000e-01  4.819354e-02
   endloop
 endfacet
 facet normal  9.802420e-01  0.000000e+00  1.978019e-01
   outer loop
     vertex  1.976064e-01  1.500000e-01  3.084979e-02
     vertex  1.941066e-01  1.500000e-01  4.819354e-02
     vertex  1.941066e-01 -1.500000e-01  4.819354e-02
   endloop
 endfacet
 facet normal  9.802420e-01  0.000000e+00  1.978019e-01
   outer loop
     vertex  1.976064e-01  1.500000e-01  3.084979e-02
     vertex  1.941066e-01 -1.500000e-01  4.819354e-02
     vertex  1.976064e-01 -1.500000e-01  3.084979e-02
   endloop
 endfacet
 facet normal  9.938879e-01  0.000000e+00  1.103940e-01
   outer loop
     vertex  1.995596e-01  1.500000e-01  1.326459e-02
     vertex  1.976064e-01  1.500000e-01  3.084979e-02
     vertex  1.976064e-01 -1.500000e-01  3.084979e-02
   endloop
 endfacet
 facet normal  9.938879e-01  0.000000e+00  1.103940e-01
   outer loop
     vertex  1.995596e-01  1.500000e-01  1.326459e-02
     vertex  1.976064e-01 -1.500000e-01  3.084979e-02
     vertex  1.995596e-01 -1.500000e-01  1.326459e-02
   endloop
 endfacet
 facet normal  9.997553e-01  0.000000e+00  2.212209e-02
   outer loop
     vertex  1.999511e-01  1.500000e-01 -4.424417e-03
     vertex  1.995596e-01  1.500000e-01  1.326459e-02
     vertex  1.995596e-01 -1.500000e-01  1.326459e-02
   endloop
 endfacet
 facet normal  9.997553e-01  0.000000e+00  2.212209e-02
   outer loop
     vertex  1.999511e-01  1.500000e-01 -4.424417e-03
     vertex  1.995596e-01 -1.500000e-01  1.326459e-02
     vertex  1.999511e-01 -1.500000e-01 -4.424417e-03
   endloop
 endfacet
 facet normal  9.977982e-01  0.000000e+00 -6.632296e-02
   outer loop
     vertex  1.999511e-01  1.500000e-01 -4.424417e-03
     vertex  1.999511e-01 -1.500000e-01 -4.424417e-03
     vertex  1.987776e-01 -1.500000e-01 -2.207880e-02
   endloop
 endfacet
 facet normal  9.977982e-01  0.000000e+00 -6.632296e-02
   outer loop
     vertex  1.987776e-01  1.500000e-01 -2.207880e-02
     vertex  1.999511e-01  1.500000e-01 -4.424417e-03
     vertex  1.987776e-01 -1.500000e-01 -2.207880e-02
   endloop
 endfacet
 facet normal  9.880320e-01  0.000000e+00 -1.542489e-01
   outer loop
     vertex  1.987776e-01  1.500000e-01 -2.207880e-02
     vertex  1.987776e-01 -1.500000e-01 -2.207880e-02
     vertex  1.960484e-01 -1.500000e-01 -3.956038e-02
   endloop
 endfacet
 facet normal  9.880320e-01  0.000000e+00 -1.542489e-01
   outer loop
     vertex  1.960484e-01  1.500000e-01 -3.956038e-02
     vertex  1.987776e-01  1.500000e-01 -2.207880e-02
     vertex  1.960484e-01 -1.500000e-01 -3.956038e-02
   endloop
 endfacet
 facet normal  9.705331e-01  0.000000e+00 -2.409677e-01
   outer loop
     vertex  1.917849e-01  1.500000e-01 -5.673236e-02
     vertex  1.960484e-01  1.500000e-01 -3.956038e-02
     vertex  1.960484e-01 -1.500000e-01 -3.956038e-02
   endloop
 endfacet
 facet normal  9.705331e-01  0.000000e+00 -2.409677e-01
   outer loop
     vertex  1.917849e-01  1.500000e-01 -5.673236e-02
     vertex  1.960484e-01 -1.500000e-01 -3.956038e-02
     vertex  1.917849e-01 -1.500000e-01 -5.673236e-02
   endloop
 endfacet
 facet normal  9.454385e-01  0.000000e+00 -3.258006e-01
   outer loop
     vertex  1.860204e-01  1.500000e-01 -7.346032e-02
     vertex  1.917849e-01  1.500000e-01 -5.673236e-02
     vertex  1.917849e-01 -1.500000e-01 -5.673236e-02
   endloop
 endfacet
 facet normal  9.454385e-01  0.000000e+00 -3.258006e-01
   outer loop
     vertex  1.860204e-01  1.500000e-01 -7.346032e-02
     vertex  1.917849e-01 -1.500000e-01 -5.673236e-02
     vertex  1.860204e-01 -1.500000e-01 -7.346032e-02
   endloop
 endfacet
 facet normal  9.129446e-01  0.000000e+00 -4.080836e-01
   outer loop
     vertex  1.788000e-01  1.500000e-01 -8.961336e-02
     vertex  1.860204e-01  1.500000e-01 -7.346032e-02
     vertex  1.860204e-01 -1.500000e-01 -7.346032e-02
   endloop
 endfacet
 facet normal  9.129446e-01  0.000000e+00 -4.080836e-01
   outer loop
     vertex  1.788000e-01  1.500000e-01 -8.961336e-02
     vertex  1.860204e-01 -1.500000e-01 -7.346032e-02
     vertex  1.788000e-01 -1.500000e-01 -8.961336e-02
   endloop
 endfacet
 facet normal  8.733056e-01  0.000000e+00 -4.871728e-01
   outer loop
     vertex  1.701803e-01  1.500000e-01 -1.050650e-01
     vertex  1.788000e-01  1.500000e-01 -8.961336e-02
     vertex  1.788000e-01 -1.500000e-01 -8.961336e-02
   endloop
 endfacet
 facet normal  8.733056e-01  0.000000e+00 -4.871728e-01
   outer loop
     vertex  1.701803e-01  1.500000e-01 -1.050650e-01
     vertex  1.788000e-01 -1.500000e-01 -8.961336e-02
     vertex  1.701803e-01 -1.500000e-01 -1.050650e-01
   endloop
 endfacet
 facet normal  8.268318e-01  0.000000e+00 -5.624493e-01
   outer loop
     vertex  1.602287e-01  1.500000e-01 -1.196945e-01
     vertex  1.701803e-01  1.500000e-01 -1.050650e-01
     vertex  1.701803e-01 -1.500000e-01 -1.050650e-01
   endloop
 endfacet
 facet normal  8.268318e-01  0.000000e+00 -5.624493e-01
   outer loop
     vertex  1.602287e-01  1.500000e-01 -1.196945e-01
     vertex  1.701803e-01 -1.500000e-01 -1.050650e-01
     vertex  1.602287e-01 -1.500000e-01 -1.196945e-01
   endloop
 endfacet
 facet normal  7.738869e-01  0.000000e+00 -6.333238e-01
   outer loop
     vertex  1.490231e-01  1.500000e-01 -1.333871e-01
     vertex  1.602287e-01  1.500000e-01 -1.196945e-01
     vertex  1.602287e-01 -1.500000e-01 -1.196945e-01
   endloop
 endfacet
 facet normal  7.738869e-01  0.000000e+00 -6.333238e-01
   outer loop
     vertex  1.490231e-01  1.500000e-01 -1.333871e-01
     vertex  1.602287e-01 -1.500000e-01 -1.196945e-01
     vertex  1.490231e-01 -1.500000e-01 -1.333871e-01
   endloop
 endfacet
 facet normal  7.148853e-01  0.000000e+00 -6.992417e-01
   outer loop
     vertex  1.366512e-01  1.500000e-01 -1.460358e-01
     vertex  1.490231e-01  1.500000e-01 -1.333871e-01
     vertex  1.490231e-01 -1.500000e-01 -1.333871e-01
   endloop
 endfacet
 facet normal  7.148853e-01  0.000000e+00 -6.992417e-01
   outer loop
     vertex  1.366512e-01  1.500000e-01 -1.460358e-01
     vertex  1.490231e-01 -1.500000e-01 -1.333871e-01
     vertex  1.366512e-01 -1.500000e-01 -1.460358e-01
   endloop
 endfacet
 facet normal  6.502888e-01  0.000000e+00 -7.596871e-01
   outer loop
     vertex  1.232098e-01  1.500000e-01 -1.575416e-01
     vertex  1.366512e-01  1.500000e-01 -1.460358e-01
     vertex  1.366512e-01 -1.500000e-01 -1.460358e-01
   endloop
 endfacet
 facet normal  6.502888e-01  0.000000e+00 -7.596871e-01
   outer loop
     vertex  1.232098e-01  1.500000e-01 -1.575416e-01
     vertex  1.366512e-01 -1.500000e-01 -1.460358e-01
     vertex  1.232098e-01 -1.500000e-01 -1.575416e-01
   endloop
 endfacet
 facet normal  5.806029e-01  0.000000e+00 -8.141869e-01
   outer loop
     vertex  1.088041e-01  1.500000e-01 -1.678144e-01
     vertex  1.232098e-01 -1.500000e-01 -1.575416e-01
     vertex  1.088041e-01 -1.500000e-01 -1.678144e-01
   endloop
 endfacet
 facet normal  5.806029e-01  0.000000e+00 -8.141869e-01
   outer loop
     vertex  1.088041e-01  1.500000e-01 -1.678144e-01
     vertex  1.232098e-01  1.500000e-01 -1.575416e-01
     vertex  1.232098e-01 -1.500000e-01 -1.575416e-01
   endloop
 endfacet
 facet normal  5.063730e-01  0.000000e+00 -8.623146e-01
   outer loop
     vertex  9.354686e-02  1.500000e-01 -1.767738e-01
     vertex  1.088041e-01 -1.500000e-01 -1.678144e-01
     vertex  9.354686e-02 -1.500000e-01 -1.767738e-01
   endloop
 endfacet
 facet normal  5.063730e-01  0.000000e+00 -8.623146e-01
   outer loop
     vertex  9.354686e-02  1.500000e-01 -1.767738e-01
     vertex  1.088041e-01  1.500000e-01 -1.678144e-01
     vertex  1.088041e-01 -1.500000e-01 -1.678144e-01
   endloop
 endfacet
 facet normal  4.281800e-01  0.000000e+00 -9.036935e-01
   outer loop
     vertex  7.755750e-02  1.500000e-01 -1.843498e-01
     vertex  9.354686e-02 -1.500000e-01 -1.767738e-01
     vertex  7.755750e-02 -1.500000e-01 -1.843498e-01
   endloop
 endfacet
 facet normal  4.281800e-01  0.000000e+00 -9.036935e-01
   outer loop
     vertex  7.755750e-02  1.500000e-01 -1.843498e-01
     vertex  9.354686e-02  1.500000e-01 -1.767738e-01
     vertex  9.354686e-02 -1.500000e-01 -1.767738e-01
   endloop
 endfacet
 facet normal  3.466359e-01  0.000000e+00 -9.379998e-01
   outer loop
     vertex  6.096115e-02  1.500000e-01 -1.904829e-01
     vertex  7.755750e-02 -1.500000e-01 -1.843498e-01
     vertex  6.096115e-02 -1.500000e-01 -1.904829e-01
   endloop
 endfacet
 facet normal  3.466359e-01  0.000000e+00 -9.379998e-01
   outer loop
     vertex  6.096115e-02  1.500000e-01 -1.904829e-01
     vertex  7.755750e-02  1.500000e-01 -1.843498e-01
     vertex  7.755750e-02 -1.500000e-01 -1.843498e-01
   endloop
 endfacet
 facet normal  2.623790e-01  0.000000e+00 -9.649649e-01
   outer loop
     vertex  4.388770e-02  1.500000e-01 -1.951253e-01
     vertex  6.096115e-02 -1.500000e-01 -1.904829e-01
     vertex  4.388770e-02 -1.500000e-01 -1.951253e-01
   endloop
 endfacet
 facet normal  2.623790e-01  0.000000e+00 -9.649649e-01
   outer loop
     vertex  4.388770e-02  1.500000e-01 -1.951253e-01
     vertex  6.096115e-02  1.500000e-01 -1.904829e-01
     vertex  6.096115e-02 -1.500000e-01 -1.904829e-01
   endloop
 endfacet
 facet normal  1.760685e-01  0.000000e+00 -9.843779e-01
   outer loop
     vertex  2.647077e-02  1.500000e-01 -1.982405e-01
     vertex  4.388770e-02 -1.500000e-01 -1.951253e-01
     vertex  2.647077e-02 -1.500000e-01 -1.982405e-01
   endloop
 endfacet
 facet normal  1.760685e-01  0.000000e+00 -9.843779e-01
   outer loop
     vertex  2.647077e-02  1.500000e-01 -1.982405e-01
     vertex  4.388770e-02  1.500000e-01 -1.951253e-01
     vertex  4.388770e-02 -1.500000e-01 -1.951253e-01
   endloop
 endfacet
 facet normal  8.838010e-02  0.000000e+00 -9.960868e-01
   outer loop
     vertex  8.846669e-03  1.500000e-01 -1.998042e-01
     vertex  2.647077e-02 -1.500000e-01 -1.982405e-01
     vertex  8.846669e-03 -1.500000e-01 -1.998042e-01
   endloop
 endfacet
 facet normal  8.838010e-02  0.000000e+00 -9.960868e-01
   outer loop
     vertex  8.846669e-03  1.500000e-01 -1.998042e-01
     vertex  2.647077e-02  1.500000e-01 -1.982405e-01
     vertex  2.647077e-02 -1.500000e-01 -1.982405e-01
   endloop
 endfacet
 facet normal -3.137404e-15 -0.000000e+00 -1.000000e+00
   outer loop
     vertex -8.846669e-03  1.500000e-01 -1.998042e-01
     vertex  8.846669e-03 -1.500000e-01 -1.998042e-01
     vertex -8.846669e-03 -1.500000e-01 -1.998042e-01
   endloop
 endfacet
 facet normal -3.137404e-15  0.000000e+00 -1.000000e+00
   outer loop
     vertex -8.846669e-03  1.500000e-01 -1.998042e-01
     vertex  8.846669e-03  1.500000e-01 -1.998042e-01
     vertex  8.846669e-03 -1.500000e-01 -1.998042e-01
   endloop
 endfacet
 facet normal -8.838010e-02 -0.000000e+00 -9.960868e-01
   outer loop
     vertex -2.647077e-02  1.500000e-01 -1.982405e-01
     vertex -8.846669e-03 -1.500000e-01 -1.998042e-01
     vertex -2.647077e-02 -1.500000e-01 -1.982405e-01
   endloop
 endfacet
 facet normal -8.838010e-02  0.000000e+00 -9.960868e-01
   outer loop
     vertex -2.647077e-02  1.500000e-01 -1.982405e-01
     vertex -8.846669e-03  1.500000e-01 -1.998042e-01
     vertex -8.846669e-03 -1.500000e-01 -1.998042e-01
   endloop
 endfacet
 facet normal -1.760685e-01 -0.000000e+00 -9.843779e-01
   outer loop
     vertex -4.388770e-02  1.500000e-01 -1.951253e-01
     vertex -2.647077e-02 -1.500000e-01 -1.982405e-01
     vertex -4.388770e-02 -1.500000e-01 -1.951253e-01
   endloop
 endfacet
 facet normal -1.760685e-01  0.000000e+00 -9.843779e-01
   outer loop
     vertex -4.388770e-02  1.500000e-01 -1.951253e-01
     vertex -2.647077e-02  1.500000e-01 -1.982405e-01
     vertex -2.647077e-02 -1.500000e-01 -1.982405e-01
   endloop
 endfacet
 facet normal -2.623790e-01  0.000000e+00 -9.649649e-01
   outer loop
     vertex -6.096115e-02  1.500000e-01 -1.904829e-01
     vertex -4.388770e-02  1.500000e-01 -1.951253e-01
     vertex -4.388770e-02 -1.500000e-01 -1.951253e-01
   endloop
 endfacet
 facet normal -2.623790e-01 -0.000000e+00 -9.649649e-01
   outer loop
     vertex -6.096115e-02  1.500000e-01 -1.904829e-01
     vertex -4.388770e-02 -1.500000e-01 -1.951253e-01
     vertex -6.096115e-02 -1.500000e-01 -1.904829e-01
   endloop
 endfacet
 facet normal -3.466359e-01  0.000000e+00 -9.379998e-01
   outer loop
     vertex -7.755750e-02  1.500000e-01 -1.843498e-01
     vertex -6.096115e-02  1.500000e-01 -1.904829e-01
     vertex -6.096115e-02 -1.500000e-01 -1.904829e-01
   endloop
 endfacet
 facet normal -3.466359e-01 -0.000000e+00 -9.379998e-01
   outer loop
     vertex -7.755750e-02  1.500000e-01 -1.843498e-01
     vertex -6.096115e-02 -1.500000e-01 -1.904829e-01
     vertex -7.755750e-02 -1.500000e-01 -1.843498e-01
   endloop
 endfacet
 facet normal -4.281800e-01  0.000000e+00 -9.036935e-01
   outer loop
     vertex -9.354686e-02  1.500000e-01 -1.767738e-01
     vertex -7.755750e-02  1.500000e-01 -1.843498e-01
     vertex -7.755750e-02 -1.500000e-01 -1.843498e-01
   endloop
 endfacet
 facet normal -4.281800e-01 -0.000000e+00 -9.036935e-01
   outer loop
     vertex -9.354686e-02  1.500000e-01 -1.767738e-01
     vertex -7.755750e-02 -1.500000e-01 -1.843498e-01
     vertex -9.354686e-02 -1.500000e-01 -1.767738e-01
   endloop
 endfacet
 facet normal -5.063730e-01 -0.000000e+00 -8.623146e-01
   outer loop
     vertex -1.088041e-01  1.500000e-01 -1.678144e-01
     vertex -9.354686e-02 -1.500000e-01 -1.767738e-01
     vertex -1.088041e-01 -1.500000e-01 -1.678144e-01
   endloop
 endfacet
 facet normal -5.063730e-01  0.000000e+00 -8.623146e-01
   outer loop
     vertex -1.088041e-01  1.500000e-01 -1.678144e-01
     vertex -9.354686e-02  1.500000e-01 -1.767738e-01
     vertex -9.354686e-02 -1.500000e-01 -1.767738e-01
   endloop
 endfacet
 facet normal -5.806029e-01 -0.000000e+00 -8.141869e-01
   outer loop
     vertex -1.232098e-01  1.500000e-01 -1.575416e-01
     vertex -1.088041e-01 -1.500000e-01 -1.678144e-01
     vertex -1.232098e-01 -1.500000e-01 -1.575416e-01
   endloop
 endfacet
 facet normal -5.806029e-01  0.000000e+00 -8.141869e-01
   outer loop
     vertex -1.232098e-01  1.500000e-01 -1.575416e-01
     vertex -1.088041e-01  1.500000e-01 -1.678144e-01
     vertex -1.088041e-01 -1.500000e-01 -1.678144e-01
   endloop
 endfacet
 facet normal -6.502888e-01 -0.000000e+00 -7.596871e-01
   outer loop
     vertex -1.366512e-01  1.500000e-01 -1.460358e-01
     vertex -1.232098e-01 -1.500000e-01 -1.575416e-01
     vertex -1.366512e-01 -1.500000e-01 -1.460358e-01
   endloop
 endfacet
 facet normal -6.502888e-01  0.000000e+00 -7.596871e-01
   outer loop
     vertex -1.366512e-01  1.500000e-01 -1.460358e-01
     vertex -1.232098e-01  1.500000e-01 -1.575416e-01
     vertex -1.232098e-01 -1.500000e-01 -1.575416e-01
   endloop
 endfacet
 facet normal -7.148853e-01 -0.000000e+00 -6.992417e-01
   outer loop
     vertex -1.490231e-01  1.500000e-01 -1.333871e-01
     vertex -1.366512e-01 -1.500000e-01 -1.460358e-01
     vertex -1.490231e-01 -1.500000e-01 -1.333871e-01
   endloop
 endfacet
 facet normal -7.738869e-01 -0.000000e+00 -6.333238e-01
   outer loop
     vertex -1.490231e-01  1.500000e-01 -1.333871e-01
     vertex -1.490231e-01 -1.500000e-01 -1.333871e-01
     vertex -1.602287e-01 -1.500000e-01 -1.196945e-01
   endloop
 endfacet
 facet normal -7.148853e-01  0.000000e+00 -6.992417e-01
   outer loop
     vertex -1.490231e-01  1.500000e-01 -1.333871e-01
     vertex -1.366512e-01  1.500000e-01 -1.460358e-01
     vertex -1.366512e-01 -1.500000e-01 -1.460358e-01
   endloop
 endfacet
 facet normal -8.268318e-01 -0.000000e+00 -5.624493e-01
   outer loop
     vertex -1.602287e-01  1.500000e-01 -1.196945e-01
     vertex -1.602287e-01 -1.500000e-01 -1.196945e-01
     vertex -1.701803e-01 -1.500000e-01 -1.050650e-01
   endloop
 endfacet
 facet normal -7.738869e-01 -0.000000e+00 -6.333238e-01
   outer loop
     vertex -1.602287e-01  1.500000e-01 -1.196945e-01
     vertex -1.490231e-01  1.500000e-01 -1.333871e-01
     vertex -1.602287e-01 -1.500000e-01 -1.196945e-01
   endloop
 endfacet
 facet normal -8.268318e-01 -0.000000e+00 -5.624493e-01
   outer loop
     vertex -1.701803e-01  1.500000e-01 -1.050650e-01
     vertex -1.602287e-01  1.500000e-01 -1.196945e-01
     vertex -1.701803e-01 -1.500000e-01 -1.050650e-01
   endloop
 endfacet
 facet normal -8.733056e-01 -0.000000e+00 -4.871728e-01
   outer loop
     vertex -1.788000e-01  1.500000e-01 -8.961336e-02
     vertex -1.701803e-01 -1.500000e-01 -1.050650e-01
     vertex -1.788000e-01 -1.500000e-01 -8.961336e-02
   endloop
 endfacet
 facet normal -9.129446e-01 -0.000000e+00 -4.080836e-01
   outer loop
     vertex -1.788000e-01  1.500000e-01 -8.961336e-02
     vertex -1.788000e-01 -1.500000e-01 -8.961336e-02
     vertex -1.860204e-01 -1.500000e-01 -7.346032e-02
   endloop
 endfacet
 facet normal -8.733056e-01  0.000000e+00 -4.871728e-01
   outer loop
     vertex -1.788000e-01  1.500000e-01 -8.961336e-02
     vertex -1.701803e-01  1.500000e-01 -1.050650e-01
     vertex -1.701803e-01 -1.500000e-01 -1.050650e-01
   endloop
 endfacet
 facet normal -9.129446e-01 -0.000000e+00 -4.080836e-01
   outer loop
     vertex -1.860204e-01  1.500000e-01 -7.346032e-02
     vertex -1.788000e-01  1.500000e-01 -8.961336e-02
     vertex -1.860204e-01 -1.500000e-01 -7.346032e-02
   endloop
 endfacet
 facet normal -9.454385e-01 -0.000000e+00 -3.258006e-01
   outer loop
     vertex -1.917849e-01  1.500000e-01 -5.673236e-02
     vertex -1.860204e-01 -1.500000e-01 -7.346032e-02
     vertex -1.917849e-01 -1.500000e-01 -5.673236e-02
   endloop
 endfacet
 facet normal -9.454385e-01  0.000000e+00 -3.258006e-01
   outer loop
     vertex -1.917849e-01  1.500000e-01 -5.673236e-02
     vertex -1.860204e-01  1.500000e-01 -7.346032e-02
     vertex -1.860204e-01 -1.500000e-01 -7.346032e-02
   endloop
 endfacet
 facet normal -9.705331e-01 -0.000000e+00 -2.409677e-01
   outer loop
     vertex -1.960484e-01  1.500000e-01 -3.956038e-02
     vertex -1.917849e-01 -1.500000e-01 -5.673236e-02
     vertex -1.960484e-01 -1.500000e-01 -3.956038e-02
   endloop
 endfacet
 facet normal -9.880320e-01 -0.000000e+00 -1.542489e-01
   outer loop
     vertex -1.960484e-01  1.500000e-01 -3.956038e-02
     vertex -1.960484e-01 -1.500000e-01 -3.956038e-02
     vertex -1.987776e-01 -1.500000e-01 -2.207880e-02
   endloop
 endfacet
 facet normal -9.705331e-01  0.000000e+00 -2.409677e-01
   outer loop
     vertex -1.960484e-01  1.500000e-01 -3.956038e-02
     vertex -1.917849e-01  1.500000e-01 -5.673236e-02
     vertex -1.917849e-01 -1.500000e-01 -5.673236e-02
   endloop
 endfacet
 facet normal -9.880320e-01 -0.000000e+00 -1.542489e-01
   outer loop
     vertex -1.987776e-01  1.500000e-01 -2.207880e-02
     vertex -1.960484e-01  1.500000e-01 -3.956038e-02
     vertex -1.987776e-01 -1.500000e-01 -2.207880e-02
   endloop
 endfacet
 facet normal -9.977982e-01 -0.000000e+00 -6.632296e-02
   outer loop
     vertex -1.999511e-01  1.500000e-01 -4.424417e-03
     vertex -1.987776e-01 -1.500000e-01 -2.207880e-02
     vertex -1.999511e-01 -1.500000e-01 -4.424417e-03
   endloop
 endfacet
 facet normal -9.997553e-01  0.000000e+00  2.212209e-02
   outer loop
     vertex -1.999511e-01  1.500000e-01 -4.424417e-03
     vertex -1.999511e-01 -1.500000e-01 -4.424417e-03
     vertex -1.995596e-01 -1.500000e-01  1.326459e-02
   endloop
 endfacet
 facet normal -9.977982e-01  0.000000e+00 -6.632296e-02
   outer loop
     vertex -1.999511e-01  1.500000e-01 -4.424417e-03
     vertex -1.987776e-01  1.500000e-01 -2.207880e-02
     vertex -1.987776e-01 -1.500000e-01 -2.207880e-02
   endloop
 endfacet
 facet normal -9.997553e-01  0.000000e+00  2.212209e-02
   outer loop
     vertex -1.995596e-01  1.500000e-01  1.326459e-02
     vertex -1.999511e-01  1.500000e-01 -4.424417e-03
     vertex -1.995596e-01 -1.500000e-01  1.326459e-02
   endloop
 endfacet
 facet normal -9.938879e-01  0.000000e+00  1.103940e-01
   outer loop
     vertex -1.976064e-01  1.500000e-01  3.084979e-02
     vertex -1.995596e-01 -1.500000e-01  1.326459e-02
     vertex -1.976064e-01 -1.500000e-01  3.084979e-02
   endloop
 endfacet
 facet normal -9.938879e-01  0.000000e+00  1.103940e-01
   outer loop
     vertex -1.976064e-01  1.500000e-01  3.084979e-02
     vertex -1.995596e-01  1.500000e-01  1.326459e-02
     vertex -1.995596e-01 -1.500000e-01  1.326459e-02
   endloop
 endfacet
 facet normal -9.802420e-01  0.000000e+00  1.978019e-01
   outer loop
     vertex -1.941066e-01  1.500000e-01  4.819354e-02
     vertex -1.976064e-01 -1.500000e-01  3.084979e-02
     vertex -1.941066e-01 -1.500000e-01  4.819354e-02
   endloop
 endfacet
 facet normal -9.802420e-01  0.000000e+00  1.978019e-01
   outer loop
     vertex -1.941066e-01  1.500000e-01  4.819354e-02
     vertex -1.976064e-01  1.500000e-01  3.084979e-02
     vertex -1.976064e-01 -1.500000e-01  3.084979e-02
   endloop
 endfacet
 facet normal -9.589244e-01  0.000000e+00  2.836618e-01
   outer loop
     vertex -1.890877e-01  1.500000e-01  6.516011e-02
     vertex -1.941066e-01 -1.500000e-01  4.819354e-02
     vertex -1.890877e-01 -1.500000e-01  6.516011e-02
   endloop
 endfacet
 facet normal -9.589244e-01  0.000000e+00  2.836618e-01
   outer loop
     vertex -1.890877e-01  1.500000e-01  6.516011e-02
     vertex -1.941066e-01  1.500000e-01  4.819354e-02
     vertex -1.941066e-01 -1.500000e-01  4.819354e-02
   endloop
 endfacet
 facet normal -9.301019e-01  0.000000e+00  3.673016e-01
   outer loop
     vertex -1.825889e-01  1.500000e-01  8.161672e-02
     vertex -1.890877e-01 -1.500000e-01  6.516011e-02
     vertex -1.825889e-01 -1.500000e-01  8.161672e-02
   endloop
 endfacet
 facet normal -9.301019e-01  0.000000e+00  3.673016e-01
   outer loop
     vertex -1.825889e-01  1.500000e-01  8.161672e-02
     vertex -1.890877e-01  1.500000e-01  6.516011e-02
     vertex -1.890877e-01 -1.500000e-01  6.516011e-02
   endloop
 endfacet
 facet normal -8.940001e-01  0.000000e+00  4.480668e-01
   outer loop
     vertex -1.746611e-01  1.500000e-01  9.743457e-02
     vertex -1.825889e-01 -1.500000e-01  8.161672e-02
     vertex -1.746611e-01 -1.500000e-01  9.743457e-02
   endloop
 endfacet
 facet normal -8.940001e-01  0.000000e+00  4.480668e-01
   outer loop
     vertex -1.746611e-01  1.500000e-01  9.743457e-02
     vertex -1.825889e-01  1.500000e-01  8.161672e-02
     vertex -1.825889e-01 -1.500000e-01  8.161672e-02
   endloop
 endfacet
 facet normal -8.509015e-01  0.000000e+00  5.253252e-01
   outer loop
     vertex -1.653664e-01  1.500000e-01  1.124899e-01
     vertex -1.746611e-01 -1.500000e-01  9.743457e-02
     vertex -1.653664e-01 -1.500000e-01  1.124899e-01
   endloop
 endfacet
 facet normal -8.509015e-01  0.000000e+00  5.253252e-01
   outer loop
     vertex -1.653664e-01  1.500000e-01  1.124899e-01
     vertex -1.746611e-01  1.500000e-01  9.743457e-02
     vertex -1.746611e-01 -1.500000e-01  9.743457e-02
   endloop
 endfacet
 facet normal -8.011435e-01  0.000000e+00  5.984723e-01
   outer loop
     vertex -1.547774e-01  1.500000e-01  1.266648e-01
     vertex -1.653664e-01 -1.500000e-01  1.124899e-01
     vertex -1.547774e-01 -1.500000e-01  1.266648e-01
   endloop
 endfacet
 facet normal -8.011435e-01  0.000000e+00  5.984723e-01
   outer loop
     vertex -1.547774e-01  1.500000e-01  1.266648e-01
     vertex -1.653664e-01  1.500000e-01  1.124899e-01
     vertex -1.653664e-01 -1.500000e-01  1.124899e-01
   endloop
 endfacet
 facet normal -7.451154e-01  0.000000e+00  6.669355e-01
   outer loop
     vertex -1.429771e-01  1.500000e-01  1.398483e-01
     vertex -1.547774e-01 -1.500000e-01  1.266648e-01
     vertex -1.429771e-01 -1.500000e-01  1.398483e-01
   endloop
 endfacet
 facet normal -7.451154e-01  0.000000e+00  6.669355e-01
   outer loop
     vertex -1.429771e-01  1.500000e-01  1.398483e-01
     vertex -1.547774e-01  1.500000e-01  1.266648e-01
     vertex -1.547774e-01 -1.500000e-01  1.266648e-01
   endloop
 endfacet
 facet normal -6.832558e-01  0.000000e+00  7.301791e-01
   outer loop
     vertex -1.300578e-01  1.500000e-01  1.519374e-01
     vertex -1.429771e-01 -1.500000e-01  1.398483e-01
     vertex -1.300578e-01 -1.500000e-01  1.519374e-01
   endloop
 endfacet
 facet normal -6.832558e-01  0.000000e+00  7.301791e-01
   outer loop
     vertex -1.300578e-01  1.500000e-01  1.519374e-01
     vertex -1.429771e-01  1.500000e-01  1.398483e-01
     vertex -1.429771e-01 -1.500000e-01  1.398483e-01
   endloop
 endfacet
 facet normal -6.160488e-01  0.000000e+00  7.877080e-01
   outer loop
     vertex -1.161206e-01  1.500000e-01  1.628374e-01
     vertex -1.300578e-01 -1.500000e-01  1.519374e-01
     vertex -1.161206e-01 -1.500000e-01  1.628374e-01
   endloop
 endfacet
 facet normal -6.160488e-01  0.000000e+00  7.877080e-01
   outer loop
     vertex -1.161206e-01  1.500000e-01  1.628374e-01
     vertex -1.300578e-01  1.500000e-01  1.519374e-01
     vertex -1.300578e-01 -1.500000e-01  1.519374e-01
   endloop
 endfacet
 facet normal -5.440204e-01  0.000000e+00  8.390720e-01
   outer loop
     vertex -1.012746e-01  1.500000e-01  1.724629e-01
     vertex -1.161206e-01  1.500000e-01  1.628374e-01
     vertex -1.161206e-01 -1.500000e-01  1.628374e-01
   endloop
 endfacet
 facet normal -5.440204e-01  0.000000e+00  8.390720e-01
   outer loop
     vertex -1.012746e-01  1.500000e-01  1.724629e-01
     vertex -1.161206e-01 -1.500000e-01  1.628374e-01
     vertex -1.012746e-01 -1.500000e-01  1.724629e-01
   endloop
 endfacet
 facet normal -4.677343e-01  0.000000e+00  8.838691e-01
   outer loop
     vertex -8.563600e-02  1.500000e-01  1.807387e-01
     vertex -1.012746e-01  1.500000e-01  1.724629e-01
     vertex -1.012746e-01 -1.500000e-01  1.724629e-01
   endloop
 endfacet
 facet normal -4.677343e-01  0.000000e+00  8.838691e-01
   outer loop
     vertex -8.563600e-02  1.500000e-01  1.807387e-01
     vertex -1.012746e-01 -1.500000e-01  1.724629e-01
     vertex -8.563600e-02 -1.500000e-01  1.807387e-01
   endloop
 endfacet
 facet normal -3.877875e-01  0.000000e+00  9.217488e-01
   outer loop
     vertex -6.932718e-02  1.500000e-01  1.876000e-01
     vertex -8.563600e-02  1.500000e-01  1.807387e-01
     vertex -8.563600e-02 -1.500000e-01  1.807387e-01
   endloop
 endfacet
 facet normal -3.877875e-01  0.000000e+00  9.217488e-01
   outer loop
     vertex -6.932718e-02  1.500000e-01  1.876000e-01
     vertex -8.563600e-02 -1.500000e-01  1.807387e-01
     vertex -6.932718e-02 -1.500000e-01  1.876000e-01
   endloop
 endfacet
 facet normal -3.048058e-01  0.000000e+00  9.524145e-01
   outer loop
     vertex -5.247579e-02  1.500000e-01  1.929930e-01
     vertex -6.932718e-02  1.500000e-01  1.876000e-01
     vertex -6.932718e-02 -1.500000e-01  1.876000e-01
   endloop
 endfacet
 facet normal -3.048058e-01  0.000000e+00  9.524145e-01
   outer loop
     vertex -5.247579e-02  1.500000e-01  1.929930e-01
     vertex -6.932718e-02 -1.500000e-01  1.876000e-01
     vertex -5.247579e-02 -1.500000e-01  1.929930e-01
   endloop
 endfacet
 facet normal -2.194385e-01  0.000000e+00  9.756263e-01
   outer loop
     vertex -3.521370e-02  1.500000e-01  1.968756e-01
     vertex -5.247579e-02  1.500000e-01  1.929930e-01
     vertex -5.247579e-02 -1.500000e-01  1.929930e-01
   endloop
 endfacet
 facet normal -2.194385e-01  0.000000e+00  9.756263e-01
   outer loop
     vertex -3.521370e-02  1.500000e-01  1.968756e-01
     vertex -5.247579e-02 -1.500000e-01  1.929930e-01
     vertex -3.521370e-02 -1.500000e-01  1.968756e-01
   endloop
 endfacet
 facet normal -1.323539e-01  0.000000e+00  9.912025e-01
   outer loop
     vertex -1.767602e-02  1.500000e-01  1.992174e-01
     vertex -3.521370e-02  1.500000e-01  1.968756e-01
     vertex -3.521370e-02 -1.500000e-01  1.968756e-01
   endloop
 endfacet
 facet normal -1.323539e-01  0.000000e+00  9.912025e-01
   outer loop
     vertex -1.767602e-02  1.500000e-01  1.992174e-01
     vertex -3.521370e-02 -1.500000e-01  1.968756e-01
     vertex -1.767602e-02 -1.500000e-01  1.992174e-01
   endloop
 endfacet
 facet normal -4.423335e-02  0.000000e+00  9.990212e-01
   outer loop
     vertex -4.898587e-17  1.500000e-01  2.000000e-01
     vertex -1.767602e-02  1.500000e-01  1.992174e-01
     vertex -1.767602e-02 -1.500000e-01  1.992174e-01
   endloop
 endfacet
 facet normal -4.423335e-02  0.000000e+00  9.990212e-01
   outer loop
     vertex -4.898587e-17  1.500000e-01  2.000000e-01
     vertex -1.767602e-02 -1.500000e-01  1.992174e-01
     vertex -4.898587e-17 -1.500000e-01  2.000000e-01
   endloop
 endfacet
 facet normal  0.000000e+00  1.000000e+00  0.000000e+00
   outer loop
     vertex -1.012746e-01  1.500000e-01  1.724629e-01
     vertex -1.300578e-01  1.500000e-01  1.519374e-01
     vertex -1.161206e-01  1.500000e-01  1.628374e-01
   endloop
 endfacet
 facet normal  0.000000e+00  1.000000e+00  0.000000e+00
   outer loop
     vertex -5.247579e-02  1.500000e-01  1.929930e-01
     vertex -1.012746e-01  1.500000e-01  1.724629e-01
     vertex -8.563600e-02  1.500000e-01  1.807387e-01
   endloop
 endfacet
 facet normal  0.000000e+00  1.000000e+00  0.000000e+00
   outer loop
     vertex -5.247579e-02  1.500000e-01  1.929930e-01
     vertex -8.563600e-02  1.500000e-01  1.807387e-01
     vertex -6.932718e-02  1.500000e-01  1.876000e-01
   endloop
 endfacet
 facet normal  0.000000e+00  1.000000e+00  0.000000e+00
   outer loop
     vertex  1.767602e-02  1.500000e-01  1.992174e-01
     vertex -3.521370e-02  1.500000e-01  1.968756e-01
     vertex -1.767602e-02  1.500000e-01  1.992174e-01
   endloop
 endfacet
 facet normal  0.000000e+00  1.000000e+00  0.000000e+00
   outer loop
     vertex  1.767602e-02  1.500000e-01  1.992174e-01
     vertex -1.767602e-02  1.500000e-01  1.992174e-01
     vertex -4.898587e-17  1.500000e-01  2.000000e-01
   endloop
 endfacet
 facet normal  0.000000e+00  1.000000e+00  0.000000e+00
   outer loop
     vertex  5.247579e-02  1.500000e-01  1.929930e-01
     vertex  1.767602e-02  1.500000e-01  1.992174e-01
     vertex  3.521370e-02  1.500000e-01  1.968756e-01
   endloop
 endfacet
 facet normal  0.000000e+00  1.000000e+00  0.000000e+00
   outer loop
     vertex  1.161206e-01  1.500000e-01  1.628374e-01
     vertex  6.932718e-02  1.500000e-01  1.876000e-01
     vertex  8.563600e-02  1.500000e-01  1.807387e-01
   endloop
 endfacet
 facet normal  0.000000e+00  1.000000e+00  0.000000e+00
   outer loop
     vertex  1.161206e-01  1.500000e-01  1.628374e-01
     vertex  8.563600e-02  1.500000e-01  1.807387e-01
     vertex  1.012746e-01  1.500000e-01  1.724629e-01
   endloop
 endfacet
 facet normal  0.000000e+00  1.000000e+00  0.000000e+00
   outer loop
     vertex  1.429771e-01  1.500000e-01  1.398483e-01
     vertex  5.247579e-02  1.500000e-01  1.929930e-01
     vertex  6.932718e-02  1.500000e-01  1.876000e-01
   endloop
 endfacet
 facet normal  0.000000e+00  1.000000e+00  0.000000e+00
   outer loop
     vertex  1.429771e-01  1.500000e-01  1.398483e-01
     vertex  1.161206e-01  1.500000e-01  1.628374e-01
     vertex  1.300578e-01  1.500000e-01  1.519374e-01
   endloop
 endfacet
 facet normal  0.000000e+00  1.000000e+00  0.000000e+00
   outer loop
     vertex  1.429771e-01  1.500000e-01  1.398483e-01
     vertex  1.547774e-01  1.500000e-01  1.266648e-01
     vertex  1.653664e-01  1.500000e-01  1.124899e-01
   endloop
 endfacet
 facet normal  0.000000e+00  1.000000e+00  0.000000e+00
   outer loop
     vertex  1.429771e-01  1.500000e-01  1.398483e-01
     vertex  1.653664e-01  1.500000e-01  1.124899e-01
     vertex  1.746611e-01  1.500000e-01  9.743457e-02
   endloop
 endfacet
 facet normal  0.000000e+00  1.000000e+00  0.000000e+00
   outer loop
     vertex  1.429771e-01  1.500000e-01  1.398483e-01
     vertex  1.746611e-01  1.500000e-01  9.743457e-02
     vertex  1.825889e-01  1.500000e-01  8.161672e-02
   endloop
 endfacet
 facet normal  0.000000e+00  1.000000e+00  0.000000e+00
   outer loop
     vertex  1.429771e-01  1.500000e-01  1.398483e-01
     vertex  1.825889e-01  1.500000e-01  8.161672e-02
     vertex  1.890877e-01  1.500000e-01  6.516011e-02
   endloop
 endfacet
 facet normal  0.000000e+00  1.000000e+00  0.000000e+00
   outer loop
     vertex  1.429771e-01  1.500000e-01  1.398483e-01
     vertex  1.890877e-01  1.500000e-01  6.516011e-02
     vertex  1.941066e-01  1.500000e-01  4.819354e-02
   endloop
 endfacet
 facet normal  0.000000e+00  1.000000e+00  0.000000e+00
   outer loop
     vertex  1.429771e-01  1.500000e-01  1.398483e-01
     vertex  1.941066e-01  1.500000e-01  4.819354e-02
     vertex  1.976064e-01  1.500000e-01  3.084979e-02
   endloop
 endfacet
 facet normal  0.000000e+00  1.000000e+00  0.000000e+00
   outer loop
     vertex  1.429771e-01  1.500000e-01  1.398483e-01
     vertex  1.976064e-01  1.500000e-01  3.084979e-02
     vertex  1.995596e-01  1.500000e-01  1.326459e-02
   endloop
 endfacet
 facet normal  0.000000e+00  1.000000e+00  0.000000e+00
   outer loop
     vertex  1.429771e-01  1.500000e-01  1.398483e-01
     vertex  1.995596e-01  1.500000e-01  1.326459e-02
     vertex  1.999511e-01  1.500000e-01 -4.424417e-03
   endloop
 endfacet
 facet normal  0.000000e+00  1.000000e+00  0.000000e+00
   outer loop
     vertex  1.429771e-01  1.500000e-01  1.398483e-01
     vertex  1.999511e-01  1.500000e-01 -4.424417e-03
     vertex  1.987776e-01  1.500000e-01 -2.207880e-02
   endloop
 endfacet
 facet normal  0.000000e+00  1.000000e+00  0.000000e+00
   outer loop
     vertex  1.429771e-01  1.500000e-01  1.398483e-01
     vertex  1.987776e-01  1.500000e-01 -2.207880e-02
     vertex  1.960484e-01  1.500000e-01 -3.956038e-02
   endloop
 endfacet
 facet normal  0.000000e+00  1.000000e+00  0.000000e+00
   outer loop
     vertex  1.429771e-01  1.500000e-01  1.398483e-01
     vertex  1.960484e-01  1.500000e-01 -3.956038e-02
     vertex  1.917849e-01  1.500000e-01 -5.673236e-02
   endloop
 endfacet
 facet normal  0.000000e+00  1.000000e+00  0.000000e+00
   outer loop
     vertex  1.429771e-01  1.500000e-01  1.398483e-01
     vertex  1.917849e-01  1.500000e-01 -5.673236e-02
     vertex  1.860204e-01  1.500000e-01 -7.346032e-02
   endloop
 endfacet
 facet normal  0.000000e+00  1.000000e+00  0.000000e+00
   outer loop
     vertex  1.429771e-01  1.500000e-01  1.398483e-01
     vertex  1.860204e-01  1.500000e-01 -7.346032e-02
     vertex  1.788000e-01  1.500000e-01 -8.961336e-02
   endloop
 endfacet
 facet normal  0.000000e+00  1.000000e+00  0.000000e+00
   outer loop
     vertex  1.429771e-01  1.500000e-01  1.398483e-01
     vertex  1.788000e-01  1.500000e-01 -8.961336e-02
     vertex  1.701803e-01  1.500000e-01 -1.050650e-01
   endloop
 endfacet
 facet normal  0.000000e+00  1.000000e+00  0.000000e+00
   outer loop
     vertex  1.429771e-01  1.500000e-01  1.398483e-01
     vertex -3.521370e-02  1.500000e-01  1.968756e-01
     vertex  1.767602e-02  1.500000e-01  1.992174e-01
   endloop
 endfacet
 facet normal  0.000000e+00  1.000000e+00  0.000000e+00
   outer loop
     vertex  1.429771e-01  1.500000e-01  1.398483e-01
     vertex  1.701803e-01  1.500000e-01 -1.050650e-01
     vertex  1.602287e-01  1.500000e-01 -1.196945e-01
   endloop
 endfacet
 facet normal  0.000000e+00  1.000000e+00  0.000000e+00
   outer loop
     vertex  1.429771e-01  1.500000e-01  1.398483e-01
     vertex  1.602287e-01  1.500000e-01 -1.196945e-01
     vertex  1.490231e-01  1.500000e-01 -1.333871e-01
   endloop
 endfacet
 facet normal  0.000000e+00  1.000000e+00  0.000000e+00
   outer loop
     vertex  1.429771e-01  1.500000e-01  1.398483e-01
     vertex  1.490231e-01  1.500000e-01 -1.333871e-01
     vertex  1.366512e-01  1.500000e-01 -1.460358e-01
   endloop
 endfacet
 facet normal  0.000000e+00  1.000000e+00  0.000000e+00
   outer loop
     vertex  1.429771e-01  1.500000e-01  1.398483e-01
     vertex  1.366512e-01  1.500000e-01 -1.460358e-01
     vertex  1.232098e-01  1.500000e-01 -1.575416e-01
   endloop
 endfacet
 facet normal  0.000000e+00  1.000000e+00  0.000000e+00
   outer loop
     vertex  1.429771e-01  1.500000e-01  1.398483e-01
     vertex  1.232098e-01  1.500000e-01 -1.575416e-01
     vertex  1.088041e-01  1.500000e-01 -1.678144e-01
   endloop
 endfacet
 facet normal  0.000000e+00  1.000000e+00  0.000000e+00
   outer loop
     vertex  1.429771e-01  1.500000e-01  1.398483e-01
     vertex  1.088041e-01  1.500000e-01 -1.678144e-01
     vertex  9.354686e-02  1.500000e-01 -1.767738e-01
   endloop
 endfacet
 facet normal  0.000000e+00  1.000000e+00  0.000000e+00
   outer loop
     vertex  1.429771e-01  1.500000e-01  1.398483e-01
     vertex  9.354686e-02  1.500000e-01 -1.767738e-01
     vertex  7.755750e-02  1.500000e-01 -1.843498e-01
   endloop
 endfacet
 facet normal  0.000000e+00  1.000000e+00  0.000000e+00
   outer loop
     vertex  1.429771e-01  1.500000e-01  1.398483e-01
     vertex  7.755750e-02  1.500000e-01 -1.843498e-01
     vertex  6.096115e-02  1.500000e-01 -1.904829e-01
   endloop
 endfacet
 facet normal  0.000000e+00  1.000000e+00  0.000000e+00
   outer loop
     vertex  1.429771e-01  1.500000e-01  1.398483e-01
     vertex  6.096115e-02  1.500000e-01 -1.904829e-01
     vertex  4.388770e-02  1.500000e-01 -1.951253e-01
   endloop
 endfacet
 facet normal  0.000000e+00  1.000000e+00  0.000000e+00
   outer loop
     vertex  1.429771e-01  1.500000e-01  1.398483e-01
     vertex  4.388770e-02  1.500000e-01 -1.951253e-01
     vertex  2.647077e-02  1.500000e-01 -1.982405e-01
   endloop
 endfacet
 facet normal  0.000000e+00  1.000000e+00  0.000000e+00
   outer loop
     vertex  1.429771e-01  1.500000e-01  1.398483e-01
     vertex  2.647077e-02  1.500000e-01 -1.982405e-01
     vertex  8.846669e-03  1.500000e-01 -1.998042e-01
   endloop
 endfacet
 facet normal  0.000000e+00  1.000000e+00  0.000000e+00
   outer loop
     vertex  1.429771e-01  1.500000e-01  1.398483e-01
     vertex  8.846669e-03  1.500000e-01 -1.998042e-01
     vertex -8.846669e-03  1.500000e-01 -1.998042e-01
   endloop
 endfacet
 facet normal  0.000000e+00  1.000000e+00  0.000000e+00
   outer loop
     vertex  1.429771e-01  1.500000e-01  1.398483e-01
     vertex -8.846669e-03  1.500000e-01 -1.998042e-01
     vertex -2.647077e-02  1.500000e-01 -1.982405e-01
   endloop
 endfacet
 facet normal  0.000000e+00  1.000000e+00  0.000000e+00
   outer loop
     vertex  1.429771e-01  1.500000e-01  1.398483e-01
     vertex -2.647077e-02  1.500000e-01 -1.982405e-01
     vertex -4.388770e-02  1.500000e-01 -1.951253e-01
   endloop
 endfacet
 facet normal  0.000000e+00  1.000000e+00  0.000000e+00
   outer loop
     vertex  1.429771e-01  1.500000e-01  1.398483e-01
     vertex -4.388770e-02  1.500000e-01 -1.951253e-01
     vertex -6.096115e-02  1.500000e-01 -1.904829e-01
   endloop
 endfacet
 facet normal  0.000000e+00  1.000000e+00  0.000000e+00
   outer loop
     vertex  1.429771e-01  1.500000e-01  1.398483e-01
     vertex -6.096115e-02  1.500000e-01 -1.904829e-01
     vertex -7.755750e-02  1.500000e-01 -1.843498e-01
   endloop
 endfacet
 facet normal  0.000000e+00  1.000000e+00  0.000000e+00
   outer loop
     vertex  1.429771e-01  1.500000e-01  1.398483e-01
     vertex -7.755750e-02  1.500000e-01 -1.843498e-01
     vertex -9.354686e-02  1.500000e-01 -1.767738e-01
   endloop
 endfacet
 facet normal  0.000000e+00  1.000000e+00  0.000000e+00
   outer loop
     vertex  1.429771e-01  1.500000e-01  1.398483e-01
     vertex -9.354686e-02  1.500000e-01 -1.767738e-01
     vertex -1.088041e-01  1.500000e-01 -1.678144e-01
   endloop
 endfacet
 facet normal  0.000000e+00  1.000000e+00  0.000000e+00
   outer loop
     vertex  1.429771e-01  1.500000e-01  1.398483e-01
     vertex -1.088041e-01  1.500000e-01 -1.678144e-01
     vertex -1.232098e-01  1.500000e-01 -1.575416e-01
   endloop
 endfacet
 facet normal  0.000000e+00  1.000000e+00  0.000000e+00
   outer loop
     vertex  1.429771e-01  1.500000e-01  1.398483e-01
     vertex -1.232098e-01  1.500000e-01 -1.575416e-01
     vertex -1.366512e-01  1.500000e-01 -1.460358e-01
   endloop
 endfacet
 facet normal  0.000000e+00  1.000000e+00  0.000000e+00
   outer loop
     vertex  1.429771e-01  1.500000e-01  1.398483e-01
     vertex -1.366512e-01  1.500000e-01 -1.460358e-01
     vertex -1.490231e-01  1.500000e-01 -1.333871e-01
   endloop
 endfacet
 facet normal  0.000000e+00  1.000000e+00  0.000000e+00
   outer loop
     vertex  1.429771e-01  1.500000e-01  1.398483e-01
     vertex -1.490231e-01  1.500000e-01 -1.333871e-01
     vertex -1.602287e-01  1.500000e-01 -1.196945e-01
   endloop
 endfacet
 facet normal  0.000000e+00  1.000000e+00  0.000000e+00
   outer loop
     vertex  1.429771e-01  1.500000e-01  1.398483e-01
     vertex -1.602287e-01  1.500000e-01 -1.196945e-01
     vertex -1.701803e-01  1.500000e-01 -1.050650e-01
   endloop
 endfacet
 facet normal  0.000000e+00  1.000000e+00  0.000000e+00
   outer loop
     vertex  1.429771e-01  1.500000e-01  1.398483e-01
     vertex -1.701803e-01  1.500000e-01 -1.050650e-01
     vertex -1.788000e-01  1.500000e-01 -8.961336e-02
   endloop
 endfacet
 facet normal  0.000000e+00  1.000000e+00  0.000000e+00
   outer loop
     vertex  1.429771e-01  1.500000e-01  1.398483e-01
     vertex -1.012746e-01  1.500000e-01  1.724629e-01
     vertex -5.247579e-02  1.500000e-01  1.929930e-01
   endloop
 endfacet
 facet normal  0.000000e+00  1.000000e+00  0.000000e+00
   outer loop
     vertex  1.429771e-01  1.500000e-01  1.398483e-01
     vertex -1.788000e-01  1.500000e-01 -8.961336e-02
     vertex -1.860204e-01  1.500000e-01 -7.346032e-02
   endloop
 endfacet
 facet normal  0.000000e+00  1.000000e+00  0.000000e+00
   outer loop
     vertex  1.429771e-01  1.500000e-01  1.398483e-01
     vertex -1.860204e-01  1.500000e-01 -7.346032e-02
     vertex -1.917849e-01  1.500000e-01 -5.673236e-02
   endloop
 endfacet
 facet normal  0.000000e+00  1.000000e+00  0.000000e+00
   outer loop
     vertex  1.429771e-01  1.500000e-01  1.398483e-01
     vertex -1.917849e-01  1.500000e-01 -5.673236e-02
     vertex -1.960484e-01  1.500000e-01 -3.956038e-02
   endloop
 endfacet
 facet normal  0.000000e+00  1.000000e+00  0.000000e+00
   outer loop
     vertex  1.429771e-01  1.500000e-01  1.398483e-01
     vertex -1.960484e-01  1.500000e-01 -3.956038e-02
     vertex -1.987776e-01  1.500000e-01 -2.207880e-02
   endloop
 endfacet
 facet normal  0.000000e+00  1.000000e+00  0.000000e+00
   outer loop
     vertex  1.429771e-01  1.500000e-01  1.398483e-01
     vertex  6.932718e-02  1.500000e-01  1.876000e-01
     vertex  1.161206e-01  1.500000e-01  1.628374e-01
   endloop
 endfacet
 facet normal  0.000000e+00  1.000000e+00  0.000000e+00
   outer loop
     vertex  1.429771e-01  1.500000e-01  1.398483e-01
     vertex -1.987776e-01  1.500000e-01 -2.207880e-02
     vertex -1.999511e-01  1.500000e-01 -4.424417e-03
   endloop
 endfacet
 facet normal  0.000000e+00  1.000000e+00  0.000000e+00
   outer loop
     vertex  1.429771e-01  1.500000e-01  1.398483e-01
     vertex -1.999511e-01  1.500000e-01 -4.424417e-03
     vertex -1.995596e-01  1.500000e-01  1.326459e-02
   endloop
 endfacet
 facet normal  0.000000e+00  1.000000e+00  0.000000e+00
   outer loop
     vertex  1.429771e-01  1.500000e-01  1.398483e-01
     vertex -1.995596e-01  1.500000e-01  1.326459e-02
     vertex -1.976064e-01  1.500000e-01  3.084979e-02
   endloop
 endfacet
 facet normal  0.000000e+00  1.000000e+00  0.000000e+00
   outer loop
     vertex  1.429771e-01  1.500000e-01  1.398483e-01
     vertex -1.976064e-01  1.500000e-01  3.084979e-02
     vertex -1.941066e-01  1.500000e-01  4.819354e-02
   endloop
 endfacet
 facet normal  0.000000e+00  1.000000e+00  0.000000e+00
   outer loop
     vertex  1.429771e-01  1.500000e-01  1.398483e-01
     vertex -1.941066e-01  1.500000e-01  4.819354e-02
     vertex -1.890877e-01  1.500000e-01  6.516011e-02
   endloop
 endfacet
 facet normal  0.000000e+00  1.000000e+00  0.000000e+00
   outer loop
     vertex  1.429771e-01  1.500000e-01  1.398483e-01
     vertex -1.300578e-01  1.500000e-01  1.519374e-01
     vertex -1.012746e-01  1.500000e-01  1.724629e-01
   endloop
 endfacet
 facet normal  0.000000e+00  1.000000e+00  0.000000e+00
   outer loop
     vertex  1.429771e-01  1.500000e-01  1.398483e-01
     vertex -1.890877e-01  1.500000e-01  6.516011e-02
     vertex -1.825889e-01  1.500000e-01  8.161672e-02
   endloop
 endfacet
 facet normal  0.000000e+00  1.000000e+00  0.000000e+00
   outer loop
     vertex  1.429771e-01  1.500000e-01  1.398483e-01
     vertex -1.825889e-01  1.500000e-01  8.161672e-02
     vertex -1.746611e-01  1.500000e-01  9.743457e-02
   endloop
 endfacet
 facet normal  0.000000e+00  1.000000e+00  0.000000e+00
   outer loop
     vertex  1.429771e-01  1.500000e-01  1.398483e-01
     vertex -1.746611e-01  1.500000e-01  9.743457e-02
     vertex -1.653664e-01  1.500000e-01  1.124899e-01
   endloop
 endfacet
 facet normal  0.000000e+00  1.000000e+00  0.000000e+00
   outer loop
     vertex  1.429771e-01  1.500000e-01  1.398483e-01
     vertex -1.653664e-01  1.500000e-01  1.124899e-01
     vertex -1.547774e-01  1.500000e-01  1.266648e-01
   endloop
 endfacet
 facet normal  0.000000e+00  1.000000e+00  0.000000e+00
   outer loop
     vertex  1.429771e-01  1.500000e-01  1.398483e-01
     vertex -1.547774e-01  1.500000e-01  1.266648e-01
     vertex -1.429771e-01  1.500000e-01  1.398483e-01
   endloop
 endfacet
 facet normal  0.000000e+00  1.000000e+00  0.000000e+00
   outer loop
     vertex  1.429771e-01  1.500000e-01  1.398483e-01
     vertex -1.429771e-01  1.500000e-01  1.398483e-01
     vertex -1.300578e-01  1.500000e-01  1.519374e-01
   endloop
 endfacet
 facet normal  0.000000e+00  1.000000e+00  0.000000e+00
   outer loop
     vertex  1.429771e-01  1.500000e-01  1.398483e-01
     vertex -5.247579e-02  1.500000e-01  1.929930e-01
     vertex -3.521370e-02  1.500000e-01  1.968756e-01
   endloop
 endfacet
 facet normal  0.000000e+00  1.000000e+00  0.000000e+00
   outer loop
     vertex  1.429771e-01  1.500000e-01  1.398483e-01
     vertex  1.767602e-02  1.500000e-01  1.992174e-01
     vertex  5.247579e-02  1.500000e-01  1.929930e-01
   endloop
 endfacet
 facet normal  0.000000e+00 -1.000000e+00  0.000000e+00
   outer loop
     vertex -1.012746e-01 -1.500000e-01  1.724629e-01
     vertex -1.161206e-01 -1.500000e-01  1.628374e-01
     vertex -1.300578e-01 -1.500000e-01  1.519374e-01
   endloop
 endfacet
 facet normal  0.000000e+00 -1.000000e+00  0.000000e+00
   outer loop
     vertex -5.247579e-02 -1.500000e-01  1.929930e-01
     vertex -8.563600e-02 -1.500000e-01  1.807387e-01
     vertex -1.012746e-01 -1.500000e-01  1.724629e-01
   endloop
 endfacet
 facet normal  0.000000e+00 -1.000000e+00  0.000000e+00
   outer loop
     vertex -5.247579e-02 -1.500000e-01  1.929930e-01
     vertex -6.932718e-02 -1.500000e-01  1.876000e-01
     vertex -8.563600e-02 -1.500000e-01  1.807387e-01
   endloop
 endfacet
 facet normal  0.000000e+00 -1.000000e+00  0.000000e+00
   outer loop
     vertex  1.767602e-02 -1.500000e-01  1.992174e-01
     vertex -1.767602e-02 -1.500000e-01  1.992174e-01
     vertex -3.521370e-02 -1.500000e-01  1.968756e-01
   endloop
 endfacet
 facet normal -0.000000e+00 -1.000000e+00  0.000000e+00
   outer loop
     vertex  1.767602e-02 -1.500000e-01  1.992174e-01
     vertex -4.898587e-17 -1.500000e-01  2.000000e-01
     vertex -1.767602e-02 -1.500000e-01  1.992174e-01
   endloop
 endfacet
 facet normal  0.000000e+00 -1.000000e+00  0.000000e+00
   outer loop
     vertex  5.247579e-02 -1.500000e-01  1.929930e-01
     vertex  3.521370e-02 -1.500000e-01  1.968756e-01
     vertex  1.767602e-02 -1.500000e-01  1.992174e-01
   endloop
 endfacet
 facet normal  0.000000e+00 -1.000000e+00  0.000000e+00
   outer loop
     vertex  1.161206e-01 -1.500000e-01  1.628374e-01
     vertex  8.563600e-02 -1.500000e-01  1.807387e-01
     vertex  6.932718e-02 -1.500000e-01  1.876000e-01
   endloop
 endfacet
 facet normal  0.000000e+00 -1.000000e+00  0.000000e+00
   outer loop
     vertex  1.161206e-01 -1.500000e-01  1.628374e-01
     vertex  1.012746e-01 -1.500000e-01  1.724629e-01
     vertex  8.563600e-02 -1.500000e-01  1.807387e-01
   endloop
 endfacet
 facet normal  0.000000e+00 -1.000000e+00  0.000000e+00
   outer loop
     vertex  1.429771e-01 -1.500000e-01  1.398483e-01
     vertex  6.932718e-02 -1.500000e-01  1.876000e-01
     vertex  5.247579e-02 -1.500000e-01  1.929930e-01
   endloop
 endfacet
 facet normal  0.000000e+00 -1.000000e+00  0.000000e+00
   outer loop
     vertex  1.429771e-01 -1.500000e-01  1.398483e-01
     vertex  1.300578e-01 -1.500000e-01  1.519374e-01
     vertex  1.161206e-01 -1.500000e-01  1.628374e-01
   endloop
 endfacet
 facet normal  0.000000e+00 -1.000000e+00  0.000000e+00
   outer loop
     vertex  1.429771e-01 -1.500000e-01  1.398483e-01
     vertex  1.653664e-01 -1.500000e-01  1.124899e-01
     vertex  1.547774e-01 -1.500000e-01  1.266648e-01
   endloop
 endfacet
 facet normal  0.000000e+00 -1.000000e+00  0.000000e+00
   outer loop
     vertex  1.429771e-01 -1.500000e-01  1.398483e-01
     vertex  1.746611e-01 -1.500000e-01  9.743457e-02
     vertex  1.653664e-01 -1.500000e-01  1.124899e-01
   endloop
 endfacet
 facet normal  0.000000e+00 -1.000000e+00  0.000000e+00
   outer loop
     vertex  1.429771e-01 -1.500000e-01  1.398483e-01
     vertex  1.825889e-01 -1.500000e-01  8.161672e-02
     vertex  1.746611e-01 -1.500000e-01  9.743457e-02
   endloop
 endfacet
 facet normal  0.000000e+00 -1.000000e+00  0.000000e+00
   outer loop
     vertex  1.429771e-01 -1.500000e-01  1.398483e-01
     vertex  1.890877e-01 -1.500000e-01  6.516011e-02
     vertex  1.825889e-01 -1.500000e-01  8.161672e-02
   endloop
 endfacet
 facet normal  0.000000e+00 -1.000000e+00  0.000000e+00
   outer loop
     vertex  1.429771e-01 -1.500000e-01  1.398483e-01
     vertex  1.941066e-01 -1.500000e-01  4.819354e-02
     vertex  1.890877e-01 -1.500000e-01  6.516011e-02
   endloop
 endfacet
 facet normal  0.000000e+00 -1.000000e+00  0.000000e+00
   outer loop
     vertex  1.429771e-01 -1.500000e-01  1.398483e-01
     vertex  1.976064e-01 -1.500000e-01  3.084979e-02
     vertex  1.941066e-01 -1.500000e-01  4.819354e-02
   endloop
 endfacet
 facet normal  0.000000e+00 -1.000000e+00  0.000000e+00
   outer loop
     vertex  1.429771e-01 -1.500000e-01  1.398483e-01
     vertex  1.995596e-01 -1.500000e-01  1.326459e-02
     vertex  1.976064e-01 -1.500000e-01  3.084979e-02
   endloop
 endfacet
 facet normal  0.000000e+00 -1.000000e+00  0.000000e+00
   outer loop
     vertex  1.429771e-01 -1.500000e-01  1.398483e-01
     vertex  1.999511e-01 -1.500000e-01 -4.424417e-03
     vertex  1.995596e-01 -1.500000e-01  1.326459e-02
   endloop
 endfacet
 facet normal  0.000000e+00 -1.000000e+00  0.000000e+00
   outer loop
     vertex  1.429771e-01 -1.500000e-01  1.398483e-01
     vertex  1.987776e-01 -1.500000e-01 -2.207880e-02
     vertex  1.999511e-01 -1.500000e-01 -4.424417e-03
   endloop
 endfacet
 facet normal  0.000000e+00 -1.000000e+00  0.000000e+00
   outer loop
     vertex  1.429771e-01 -1.500000e-01  1.398483e-01
     vertex  1.960484e-01 -1.500000e-01 -3.956038e-02
     vertex  1.987776e-01 -1.500000e-01 -2.207880e-02
   endloop
 endfacet
 facet normal  0.000000e+00 -1.000000e+00  0.000000e+00
   outer loop
     vertex  1.429771e-01 -1.500000e-01  1.398483e-01
     vertex  1.917849e-01 -1.500000e-01 -5.673236e-02
     vertex  1.960484e-01 -1.500000e-01 -3.956038e-02
   endloop
 endfacet
 facet normal  0.000000e+00 -1.000000e+00  0.000000e+00
   outer loop
     vertex  1.429771e-01 -1.500000e-01  1.398483e-01
     vertex  1.860204e-01 -1.500000e-01 -7.346032e-02
     vertex  1.917849e-01 -1.500000e-01 -5.673236e-02
   endloop
 endfacet
 facet normal  0.000000e+00 -1.000000e+00  0.000000e+00
   outer loop
     vertex  1.429771e-01 -1.500000e-01  1.398483e-01
     vertex  1.788000e-01 -1.500000e-01 -8.961336e-02
     vertex  1.860204e-01 -1.500000e-01 -7.346032e-02
   endloop
 endfacet
 facet normal  0.000000e+00 -1.000000e+00  0.000000e+00
   outer loop
     vertex  1.429771e-01 -1.500000e-01  1.398483e-01
     vertex  1.701803e-01 -1.500000e-01 -1.050650e-01
     vertex  1.788000e-01 -1.500000e-01 -8.961336e-02
   endloop
 endfacet
 facet normal  0.000000e+00 -1.000000e+00  0.000000e+00
   outer loop
     vertex  1.429771e-01 -1.500000e-01  1.398483e-01
     vertex  1.767602e-02 -1.500000e-01  1.992174e-01
     vertex -3.521370e-02 -1.500000e-01  1.968756e-01
   endloop
 endfacet
 facet normal  0.000000e+00 -1.000000e+00  0.000000e+00
   outer loop
     vertex  1.429771e-01 -1.500000e-01  1.398483e-01
     vertex  1.602287e-01 -1.500000e-01 -1.196945e-01
     vertex  1.701803e-01 -1.500000e-01 -1.050650e-01
   endloop
 endfacet
 facet normal  0.000000e+00 -1.000000e+00  0.000000e+00
   outer loop
     vertex  1.429771e-01 -1.500000e-01  1.398483e-01
     vertex  1.490231e-01 -1.500000e-01 -1.333871e-01
     vertex  1.602287e-01 -1.500000e-01 -1.196945e-01
   endloop
 endfacet
 facet normal  0.000000e+00 -1.000000e+00 -0.000000e+00
   outer loop
     vertex  1.429771e-01 -1.500000e-01  1.398483e-01
     vertex  1.366512e-01 -1.500000e-01 -1.460358e-01
     vertex  1.490231e-01 -1.500000e-01 -1.333871e-01
   endloop
 endfacet
 facet normal  0.000000e+00 -1.000000e+00  0.000000e+00
   outer loop
     vertex  1.429771e-01 -1.500000e-01  1.398483e-01
     vertex  1.232098e-01 -1.500000e-01 -1.575416e-01
     vertex  1.366512e-01 -1.500000e-01 -1.460358e-01
   endloop
 endfacet
 facet normal  0.000000e+00 -1.000000e+00  0.000000e+00
   outer loop
     vertex  1.429771e-01 -1.500000e-01  1.398483e-01
     vertex  1.088041e-01 -1.500000e-01 -1.678144e-01
     vertex  1.232098e-01 -1.500000e-01 -1.575416e-01
   endloop
 endfacet
 facet normal  0.000000e+00 -1.000000e+00  0.000000e+00
   outer loop
     vertex  1.429771e-01 -1.500000e-01  1.398483e-01
     vertex  9.354686e-02 -1.500000e-01 -1.767738e-01
     vertex  1.088041e-01 -1.500000e-01 -1.678144e-01
   endloop
 endfacet
 facet normal  0.000000e+00 -1.000000e+00  0.000000e+00
   outer loop
     vertex  1.429771e-01 -1.500000e-01  1.398483e-01
     vertex  7.755750e-02 -1.500000e-01 -1.843498e-01
     vertex  9.354686e-02 -1.500000e-01 -1.767738e-01
   endloop
 endfacet
 facet normal  0.000000e+00 -1.000000e+00  0.000000e+00
   outer loop
     vertex  1.429771e-01 -1.500000e-01  1.398483e-01
     vertex  6.096115e-02 -1.500000e-01 -1.904829e-01
     vertex  7.755750e-02 -1.500000e-01 -1.843498e-01
   endloop
 endfacet
 facet normal  0.000000e+00 -1.000000e+00  0.000000e+00
   outer loop
     vertex  1.429771e-01 -1.500000e-01  1.398483e-01
     vertex  4.388770e-02 -1.500000e-01 -1.951253e-01
     vertex  6.096115e-02 -1.500000e-01 -1.904829e-01
   endloop
 endfacet
 facet normal  0.000000e+00 -1.000000e+00  0.000000e+00
   outer loop
     vertex  1.429771e-01 -1.500000e-01  1.398483e-01
     vertex  2.647077e-02 -1.500000e-01 -1.982405e-01
     vertex  4.388770e-02 -1.500000e-01 -1.951253e-01
   endloop
 endfacet
 facet normal  0.000000e+00 -1.000000e+00  0.000000e+00
   outer loop
     vertex  1.429771e-01 -1.500000e-01  1.398483e-01
     vertex  8.846669e-03 -1.500000e-01 -1.998042e-01
     vertex  2.647077e-02 -1.500000e-01 -1.982405e-01
   endloop
 endfacet
 facet normal  0.000000e+00 -1.000000e+00  0.000000e+00
   outer loop
     vertex  1.429771e-01 -1.500000e-01  1.398483e-01
     vertex -8.846669e-03 -1.500000e-01 -1.998042e-01
     vertex  8.846669e-03 -1.500000e-01 -1.998042e-01
   endloop
 endfacet
 facet normal  0.000000e+00 -1.000000e+00  0.000000e+00
   outer loop
     vertex  1.429771e-01 -1.500000e-01  1.398483e-01
     vertex -2.647077e-02 -1.500000e-01 -1.982405e-01
     vertex -8.846669e-03 -1.500000e-01 -1.998042e-01
   endloop
 endfacet
 facet normal  0.000000e+00 -1.000000e+00  0.000000e+00
   outer loop
     vertex  1.429771e-01 -1.500000e-01  1.398483e-01
     vertex -4.388770e-02 -1.500000e-01 -1.951253e-01
     vertex -2.647077e-02 -1.500000e-01 -1.982405e-01
   endloop
 endfacet
 facet normal  0.000000e+00 -1.000000e+00  0.000000e+00
   outer loop
     vertex  1.429771e-01 -1.500000e-01  1.398483e-01
     vertex -6.096115e-02 -1.500000e-01 -1.904829e-01
     vertex -4.388770e-02 -1.500000e-01 -1.951253e-01
   endloop
 endfacet
 facet normal  0.000000e+00 -1.000000e+00  0.000000e+00
   outer loop
     vertex  1.429771e-01 -1.500000e-01  1.398483e-01
     vertex -7.755750e-02 -1.500000e-01 -1.843498e-01
     vertex -6.096115e-02 -1.500000e-01 -1.904829e-01
   endloop
 endfacet
 facet normal  0.000000e+00 -1.000000e+00  0.000000e+00
   outer loop
     vertex  1.429771e-01 -1.500000e-01  1.398483e-01
     vertex -9.354686e-02 -1.500000e-01 -1.767738e-01
     vertex -7.755750e-02 -1.500000e-01 -1.843498e-01
   endloop
 endfacet
 facet normal  0.000000e+00 -1.000000e+00  0.000000e+00
   outer loop
     vertex  1.429771e-01 -1.500000e-01  1.398483e-01
     vertex -1.088041e-01 -1.500000e-01 -1.678144e-01
     vertex -9.354686e-02 -1.500000e-01 -1.767738e-01
   endloop
 endfacet
 facet normal  0.000000e+00 -1.000000e+00  0.000000e+00
   outer loop
     vertex  1.429771e-01 -1.500000e-01  1.398483e-01
     vertex -1.232098e-01 -1.500000e-01 -1.575416e-01
     vertex -1.088041e-01 -1.500000e-01 -1.678144e-01
   endloop
 endfacet
 facet normal  0.000000e+00 -1.000000e+00  0.000000e+00
   outer loop
     vertex  1.429771e-01 -1.500000e-01  1.398483e-01
     vertex -1.366512e-01 -1.500000e-01 -1.460358e-01
     vertex -1.232098e-01 -1.500000e-01 -1.575416e-01
   endloop
 endfacet
 facet normal  0.000000e+00 -1.000000e+00  0.000000e+00
   outer loop
     vertex  1.429771e-01 -1.500000e-01  1.398483e-01
     vertex -1.490231e-01 -1.500000e-01 -1.333871e-01
     vertex -1.366512e-01 -1.500000e-01 -1.460358e-01
   endloop
 endfacet
 facet normal  0.000000e+00 -1.000000e+00  0.000000e+00
   outer loop
     vertex  1.429771e-01 -1.500000e-01  1.398483e-01
     vertex -1.602287e-01 -1.500000e-01 -1.196945e-01
     vertex -1.490231e-01 -1.500000e-01 -1.333871e-01
   endloop
 endfacet
 facet normal  0.000000e+00 -1.000000e+00  0.000000e+00
   outer loop
     vertex  1.429771e-01 -1.500000e-01  1.398483e-01
     vertex -1.701803e-01 -1.500000e-01 -1.050650e-01
     vertex -1.602287e-01 -1.500000e-01 -1.196945e-01
   endloop
 endfacet
 facet normal  0.000000e+00 -1.000000e+00  0.000000e+00
   outer loop
     vertex  1.429771e-01 -1.500000e-01  1.398483e-01
     vertex -1.788000e-01 -1.500000e-01 -8.961336e-02
     vertex -1.701803e-01 -1.500000e-01 -1.050650e-01
   endloop
 endfacet
 facet normal  0.000000e+00 -1.000000e+00  0.000000e+00
   outer loop
     vertex  1.429771e-01 -1.500000e-01  1.398483e-01
     vertex -5.247579e-02 -1.500000e-01  1.929930e-01
     vertex -1.012746e-01 -1.500000e-01  1.724629e-01
   endloop
 endfacet
 facet normal  0.000000e+00 -1.000000e+00  0.000000e+00
   outer loop
     vertex  1.429771e-01 -1.500000e-01  1.398483e-01
     vertex -1.860204e-01 -1.500000e-01 -7.346032e-02
     vertex -1.788000e-01 -1.500000e-01 -8.961336e-02
   endloop
 endfacet
 facet normal  0.000000e+00 -1.000000e+00  0.000000e+00
   outer loop
     vertex  1.429771e-01 -1.500000e-01  1.398483e-01
     vertex -1.917849e-01 -1.500000e-01 -5.673236e-02
     vertex -1.860204e-01 -1.500000e-01 -7.346032e-02
   endloop
 endfacet
 facet normal  0.000000e+00 -1.000000e+00  0.000000e+00
   outer loop
     vertex  1.429771e-01 -1.500000e-01  1.398483e-01
     vertex -1.960484e-01 -1.500000e-01 -3.956038e-02
     vertex -1.917849e-01 -1.500000e-01 -5.673236e-02
   endloop
 endfacet
 facet normal  0.000000e+00 -1.000000e+00  0.000000e+00
   outer loop
     vertex  1.429771e-01 -1.500000e-01  1.398483e-01
     vertex -1.987776e-01 -1.500000e-01 -2.207880e-02
     vertex -1.960484e-01 -1.500000e-01 -3.956038e-02
   endloop
 endfacet
 facet normal  0.000000e+00 -1.000000e+00  0.000000e+00
   outer loop
     vertex  1.429771e-01 -1.500000e-01  1.398483e-01
     vertex  1.161206e-01 -1.500000e-01  1.628374e-01
     vertex  6.932718e-02 -1.500000e-01  1.876000e-01
   endloop
 endfacet
 facet normal  0.000000e+00 -1.000000e+00  0.000000e+00
   outer loop
     vertex  1.429771e-01 -1.500000e-01  1.398483e-01
     vertex -1.999511e-01 -1.500000e-01 -4.424417e-03
     vertex -1.987776e-01 -1.500000e-01 -2.207880e-02
   endloop
 endfacet
 facet normal  0.000000e+00 -1.000000e+00  0.000000e+00
   outer loop
     vertex  1.429771e-01 -1.500000e-01  1.398483e-01
     vertex -1.995596e-01 -1.500000e-01  1.326459e-02
     vertex -1.999511e-01 -1.500000e-01 -4.424417e-03
   endloop
 endfacet
 facet normal  0.000000e+00 -1.000000e+00  0.000000e+00
   outer loop
     vertex  1.429771e-01 -1.500000e-01  1.398483e-01
     vertex -1.976064e-01 -1.500000e-01  3.084979e-02
     vertex -1.995596e-01 -1.500000e-01  1.326459e-02
   endloop
 endfacet
 facet normal  0.000000e+00 -1.000000e+00  0.000000e+00
   outer loop
     vertex  1.429771e-01 -1.500000e-01  1.398483e-01
     vertex -1.941066e-01 -1.500000e-01  4.819354e-02
     vertex -1.976064e-01 -1.500000e-01  3.084979e-02
   endloop
 endfacet
 facet normal  0.000000e+00 -1.000000e+00  0.000000e+00
   outer loop
     vertex  1.429771e-01 -1.500000e-01  1.398483e-01
     vertex -1.890877e-01 -1.500000e-01  6.516011e-02
     vertex -1.941066e-01 -1.500000e-01  4.819354e-02
   endloop
 endfacet
 facet normal  0.000000e+00 -1.000000e+00  0.000000e+00
   outer loop
     vertex  1.429771e-01 -1.500000e-01  1.398483e-01
     vertex -1.012746e-01 -1.500000e-01  1.724629e-01
     vertex -1.300578e-01 -1.500000e-01  1.519374e-01
   endloop
 endfacet
 facet normal  0.000000e+00 -1.000000e+00  0.000000e+00
   outer loop
     vertex  1.429771e-01 -1.500000e-01  1.398483e-01
     vertex -1.825889e-01 -1.500000e-01  8.161672e-02
     vertex -1.890877e-01 -1.500000e-01  6.516011e-02
   endloop
 endfacet
 facet normal  0.000000e+00 -1.000000e+00  0.000000e+00
   outer loop
     vertex  1.429771e-01 -1.500000e-01  1.398483e-01
     vertex -1.746611e-01 -1.500000e-01  9.743457e-02
     vertex -1.825889e-01 -1.500000e-01  8.161672e-02
   endloop
 endfacet
 facet normal  0.000000e+00 -1.000000e+00  0.000000e+00
   outer loop
     vertex  1.429771e-01 -1.500000e-01  1.398483e-01
     vertex -1.653664e-01 -1.500000e-01  1.124899e-01
     vertex -1.746611e-01 -1.500000e-01  9.743457e-02
   endloop
 endfacet
 facet normal  0.000000e+00 -1.000000e+00  0.000000e+00
   outer loop
     vertex  1.429771e-01 -1.500000e-01  1.398483e-01
     vertex -1.547774e-01 -1.500000e-01  1.266648e-01
     vertex -1.653664e-01 -1.500000e-01  1.124899e-01
   endloop
 endfacet
 facet normal  0.000000e+00 -1.000000e+00  0.000000e+00
   outer loop
     vertex  1.429771e-01 -1.500000e-01  1.398483e-01
     vertex -1.429771e-01 -1.500000e-01  1.398483e-01
     vertex -1.547774e-01 -1.500000e-01  1.266648e-01
   endloop
 endfacet
 facet normal -0.000000e+00 -1.000000e+00  0.000000e+00
   outer loop
     vertex  1.429771e-01 -1.500000e-01  1.398483e-01
     vertex -1.300578e-01 -1.500000e-01  1.519374e-01
     vertex -1.429771e-01 -1.500000e-01  1.398483e-01
   endloop
 endfacet
 facet normal  0.000000e+00 -1.000000e+00  0.000000e+00
   outer loop
     vertex  1.429771e-01 -1.500000e-01  1.398483e-01
     vertex -3.521370e-02 -1.500000e-01  1.968756e-01
     vertex -5.247579e-02 -1.500000e-01  1.929930e-01
   endloop
 endfacet
 facet normal  0.000000e+00 -1.000000e+00  0.000000e+00
   outer loop
     vertex  1.429771e-01 -1.500000e-01  1.398483e-01
     vertex  5.247579e-02 -1.500000e-01  1.929930e-01
     vertex  1.767602e-02 -1.500000e-01  1.992174e-01
   endloop
 endfacet
endsolid
