solid Inflow
 facet normal  0.000000e+00  0.000000e+00 -1.000000e+00
   outer loop
     vertex  0.000000e+00  0.000000e+00  0.000000e+00
     vertex  0.000000e+00  1.060000e+02  0.000000e+00
     vertex  1.150000e+02  1.060000e+02  0.000000e+00
   endloop
 endfacet
 facet normal  0.000000e+00  0.000000e+00 -1.000000e+00
   outer loop
     vertex  1.150000e+02  1.060000e+02  0.000000e+00
     vertex  2.300000e+02  1.060000e+02  0.000000e+00
     vertex  2.300000e+02  0.000000e+00  0.000000e+00
   endloop
 endfacet
 facet normal  0.000000e+00  0.000000e+00 -1.000000e+00
   outer loop
     vertex  1.150000e+02  1.060000e+02  0.000000e+00
     vertex  2.300000e+02  0.000000e+00  0.000000e+00
     vertex  1.150000e+02  0.000000e+00  0.000000e+00
   endloop
 endfacet
 facet normal  0.000000e+00 -0.000000e+00 -1.000000e+00
   outer loop
     vertex  1.150000e+02  1.060000e+02  0.000000e+00
     vertex  1.150000e+02  0.000000e+00  0.000000e+00
     vertex  0.000000e+00  0.000000e+00  0.000000e+00
   endloop
 endfacet
endsolid Inflow
solid Outflow
 facet normal  0.000000e+00  0.000000e+00  1.000000e+00
   outer loop
     vertex  0.000000e+00  1.060000e+02  4.090000e+02
     vertex  0.000000e+00  0.000000e+00  4.090000e+02
     vertex  1.150000e+02  0.000000e+00  4.090000e+02
   endloop
 endfacet
 facet normal  0.000000e+00  0.000000e+00  1.000000e+00
   outer loop
     vertex  1.150000e+02  1.060000e+02  4.090000e+02
     vertex  0.000000e+00  1.060000e+02  4.090000e+02
     vertex  1.150000e+02  0.000000e+00  4.090000e+02
   endloop
 endfacet
 facet normal  0.000000e+00  0.000000e+00  1.000000e+00
   outer loop
     vertex  2.300000e+02  1.060000e+02  4.090000e+02
     vertex  1.150000e+02  1.060000e+02  4.090000e+02
     vertex  1.150000e+02  0.000000e+00  4.090000e+02
   endloop
 endfacet
 facet normal  0.000000e+00 -0.000000e+00  1.000000e+00
   outer loop
     vertex  2.300000e+02  0.000000e+00  4.090000e+02
     vertex  2.300000e+02  1.060000e+02  4.090000e+02
     vertex  1.150000e+02  0.000000e+00  4.090000e+02
   endloop
 endfacet
endsolid Outflow
solid all_walls
 facet normal -1.000000e+00  0.000000e+00  0.000000e+00
   outer loop
     vertex  0.000000e+00  0.000000e+00  0.000000e+00
     vertex  0.000000e+00  0.000000e+00  1.022500e+02
     vertex  0.000000e+00  1.060000e+02  0.000000e+00
   endloop
 endfacet
 facet normal -1.000000e+00  0.000000e+00  0.000000e+00
   outer loop
     vertex  0.000000e+00  0.000000e+00  1.022500e+02
     vertex  0.000000e+00  0.000000e+00  2.045000e+02
     vertex  0.000000e+00  1.060000e+02  1.022500e+02
   endloop
 endfacet
 facet normal -1.000000e+00  0.000000e+00  0.000000e+00
   outer loop
     vertex  0.000000e+00  0.000000e+00  2.045000e+02
     vertex  0.000000e+00  0.000000e+00  3.067500e+02
     vertex  0.000000e+00  1.060000e+02  3.067500e+02
   endloop
 endfacet
 facet normal -1.000000e+00  0.000000e+00  0.000000e+00
   outer loop
     vertex  0.000000e+00  0.000000e+00  3.067500e+02
     vertex  0.000000e+00  0.000000e+00  4.090000e+02
     vertex  0.000000e+00  1.060000e+02  4.090000e+02
   endloop
 endfacet
 facet normal -1.000000e+00 -0.000000e+00 -0.000000e+00
   outer loop
     vertex  0.000000e+00  1.060000e+02  1.022500e+02
     vertex  0.000000e+00  1.060000e+02  0.000000e+00
     vertex  0.000000e+00  0.000000e+00  1.022500e+02
   endloop
 endfacet
 facet normal -1.000000e+00  0.000000e+00 -0.000000e+00
   outer loop
     vertex  0.000000e+00  1.060000e+02  4.090000e+02
     vertex  0.000000e+00  1.060000e+02  3.067500e+02
     vertex  0.000000e+00  0.000000e+00  3.067500e+02
   endloop
 endfacet
 facet normal -1.000000e+00  0.000000e+00  0.000000e+00
   outer loop
     vertex  0.000000e+00  1.060000e+02  1.022500e+02
     vertex  0.000000e+00  0.000000e+00  2.045000e+02
     vertex  0.000000e+00  1.060000e+02  2.045000e+02
   endloop
 endfacet
 facet normal -1.000000e+00  0.000000e+00  0.000000e+00
   outer loop
     vertex  0.000000e+00  0.000000e+00  2.045000e+02
     vertex  0.000000e+00  1.060000e+02  3.067500e+02
     vertex  0.000000e+00  1.060000e+02  2.045000e+02
   endloop
 endfacet
 facet normal  1.000000e+00  0.000000e+00  0.000000e+00
   outer loop
     vertex  2.300000e+02  0.000000e+00  1.022500e+02
     vertex  2.300000e+02  0.000000e+00  0.000000e+00
     vertex  2.300000e+02  1.060000e+02  0.000000e+00
   endloop
 endfacet
 facet normal  1.000000e+00  0.000000e+00  0.000000e+00
   outer loop
     vertex  2.300000e+02  0.000000e+00  2.045000e+02
     vertex  2.300000e+02  0.000000e+00  1.022500e+02
     vertex  2.300000e+02  1.060000e+02  1.022500e+02
   endloop
 endfacet
 facet normal  1.000000e+00  0.000000e+00  0.000000e+00
   outer loop
     vertex  2.300000e+02  0.000000e+00  3.067500e+02
     vertex  2.300000e+02  0.000000e+00  2.045000e+02
     vertex  2.300000e+02  1.060000e+02  2.045000e+02
   endloop
 endfacet
 facet normal  1.000000e+00 -0.000000e+00  0.000000e+00
   outer loop
     vertex  2.300000e+02  0.000000e+00  4.090000e+02
     vertex  2.300000e+02  0.000000e+00  3.067500e+02
     vertex  2.300000e+02  1.060000e+02  4.090000e+02
   endloop
 endfacet
 facet normal  1.000000e+00  0.000000e+00 -0.000000e+00
   outer loop
     vertex  2.300000e+02  1.060000e+02  0.000000e+00
     vertex  2.300000e+02  1.060000e+02  1.022500e+02
     vertex  2.300000e+02  0.000000e+00  1.022500e+02
   endloop
 endfacet
 facet normal  1.000000e+00  0.000000e+00 -0.000000e+00
   outer loop
     vertex  2.300000e+02  1.060000e+02  1.022500e+02
     vertex  2.300000e+02  1.060000e+02  2.045000e+02
     vertex  2.300000e+02  0.000000e+00  2.045000e+02
   endloop
 endfacet
 facet normal  1.000000e+00 -0.000000e+00  0.000000e+00
   outer loop
     vertex  2.300000e+02  0.000000e+00  3.067500e+02
     vertex  2.300000e+02  1.060000e+02  2.045000e+02
     vertex  2.300000e+02  1.060000e+02  3.067500e+02
   endloop
 endfacet
 facet normal  1.000000e+00  0.000000e+00  0.000000e+00
   outer loop
     vertex  2.300000e+02  1.060000e+02  4.090000e+02
     vertex  2.300000e+02  0.000000e+00  3.067500e+02
     vertex  2.300000e+02  1.060000e+02  3.067500e+02
   endloop
 endfacet
 facet normal  0.000000e+00 -1.000000e+00  0.000000e+00
   outer loop
     vertex  0.000000e+00  0.000000e+00  0.000000e+00
     vertex  1.150000e+02  0.000000e+00  0.000000e+00
     vertex  0.000000e+00  0.000000e+00  1.022500e+02
   endloop
 endfacet
 facet normal  0.000000e+00 -1.000000e+00  0.000000e+00
   outer loop
     vertex  1.150000e+02  0.000000e+00  0.000000e+00
     vertex  2.300000e+02  0.000000e+00  0.000000e+00
     vertex  2.300000e+02  0.000000e+00  1.022500e+02
   endloop
 endfacet
 facet normal  0.000000e+00 -1.000000e+00  0.000000e+00
   outer loop
     vertex  2.300000e+02  0.000000e+00  1.022500e+02
     vertex  2.300000e+02  0.000000e+00  2.045000e+02
     vertex  1.150000e+02  0.000000e+00  1.446134e+02
   endloop
 endfacet
 facet normal  0.000000e+00 -1.000000e+00  0.000000e+00
   outer loop
     vertex  2.300000e+02  0.000000e+00  3.067500e+02
     vertex  2.300000e+02  0.000000e+00  4.090000e+02
     vertex  1.150000e+02  0.000000e+00  4.090000e+02
   endloop
 endfacet
 facet normal -0.000000e+00 -1.000000e+00  0.000000e+00
   outer loop
     vertex  1.150000e+02  0.000000e+00  4.090000e+02
     vertex  0.000000e+00  0.000000e+00  4.090000e+02
     vertex  0.000000e+00  0.000000e+00  3.067500e+02
   endloop
 endfacet
 facet normal  0.000000e+00 -1.000000e+00  0.000000e+00
   outer loop
     vertex  1.150000e+02  0.000000e+00  4.090000e+02
     vertex  0.000000e+00  0.000000e+00  3.067500e+02
     vertex  1.150000e+02  0.000000e+00  2.643865e+02
   endloop
 endfacet
 facet normal -0.000000e+00 -1.000000e+00  0.000000e+00
   outer loop
     vertex  2.300000e+02  0.000000e+00  3.067500e+02
     vertex  1.150000e+02  0.000000e+00  4.090000e+02
     vertex  1.150000e+02  0.000000e+00  2.643865e+02
   endloop
 endfacet
 facet normal  0.000000e+00 -1.000000e+00  0.000000e+00
   outer loop
     vertex  0.000000e+00  0.000000e+00  3.067500e+02
     vertex  0.000000e+00  0.000000e+00  2.045000e+02
     vertex  1.150000e+02  0.000000e+00  2.643865e+02
   endloop
 endfacet
 facet normal  0.000000e+00 -1.000000e+00  0.000000e+00
   outer loop
     vertex  1.150000e+02  0.000000e+00  0.000000e+00
     vertex  2.300000e+02  0.000000e+00  1.022500e+02
     vertex  1.150000e+02  0.000000e+00  1.446134e+02
   endloop
 endfacet
 facet normal  0.000000e+00 -1.000000e+00  0.000000e+00
   outer loop
     vertex  0.000000e+00  0.000000e+00  2.045000e+02
     vertex  0.000000e+00  0.000000e+00  1.022500e+02
     vertex  1.150000e+02  0.000000e+00  1.446134e+02
   endloop
 endfacet
 facet normal  0.000000e+00 -1.000000e+00  0.000000e+00
   outer loop
     vertex  0.000000e+00  0.000000e+00  1.022500e+02
     vertex  1.150000e+02  0.000000e+00  0.000000e+00
     vertex  1.150000e+02  0.000000e+00  1.446134e+02
   endloop
 endfacet
 facet normal  0.000000e+00 -1.000000e+00  0.000000e+00
   outer loop
     vertex  1.150000e+02  0.000000e+00  1.446134e+02
     vertex  2.300000e+02  0.000000e+00  2.045000e+02
     vertex  1.150000e+02  0.000000e+00  2.643865e+02
   endloop
 endfacet
 facet normal  0.000000e+00 -1.000000e+00  0.000000e+00
   outer loop
     vertex  0.000000e+00  0.000000e+00  2.045000e+02
     vertex  1.150000e+02  0.000000e+00  1.446134e+02
     vertex  1.150000e+02  0.000000e+00  2.643865e+02
   endloop
 endfacet
 facet normal  0.000000e+00 -1.000000e+00  0.000000e+00
   outer loop
     vertex  2.300000e+02  0.000000e+00  2.045000e+02
     vertex  2.300000e+02  0.000000e+00  3.067500e+02
     vertex  1.150000e+02  0.000000e+00  2.643865e+02
   endloop
 endfacet
 facet normal  0.000000e+00  1.000000e+00  0.000000e+00
   outer loop
     vertex  1.150000e+02  1.060000e+02  0.000000e+00
     vertex  0.000000e+00  1.060000e+02  0.000000e+00
     vertex  0.000000e+00  1.060000e+02  1.022500e+02
   endloop
 endfacet
 facet normal  0.000000e+00  1.000000e+00 -0.000000e+00
   outer loop
     vertex  2.300000e+02  1.060000e+02  0.000000e+00
     vertex  1.150000e+02  1.060000e+02  0.000000e+00
     vertex  2.300000e+02  1.060000e+02  1.022500e+02
   endloop
 endfacet
 facet normal  0.000000e+00  1.000000e+00  0.000000e+00
   outer loop
     vertex  2.300000e+02  1.060000e+02  2.045000e+02
     vertex  2.300000e+02  1.060000e+02  1.022500e+02
     vertex  1.150000e+02  1.060000e+02  1.446134e+02
   endloop
 endfacet
 facet normal  0.000000e+00  1.000000e+00  0.000000e+00
   outer loop
     vertex  2.300000e+02  1.060000e+02  3.067500e+02
     vertex  2.300000e+02  1.060000e+02  2.045000e+02
     vertex  1.150000e+02  1.060000e+02  2.643866e+02
   endloop
 endfacet
 facet normal  0.000000e+00  1.000000e+00  0.000000e+00
   outer loop
     vertex  2.300000e+02  1.060000e+02  2.045000e+02
     vertex  1.150000e+02  1.060000e+02  1.446134e+02
     vertex  1.150000e+02  1.060000e+02  2.643866e+02
   endloop
 endfacet
 facet normal  0.000000e+00  1.000000e+00  0.000000e+00
   outer loop
     vertex  2.300000e+02  1.060000e+02  4.090000e+02
     vertex  2.300000e+02  1.060000e+02  3.067500e+02
     vertex  1.150000e+02  1.060000e+02  4.090000e+02
   endloop
 endfacet
 facet normal -0.000000e+00  1.000000e+00  0.000000e+00
   outer loop
     vertex  0.000000e+00  1.060000e+02  4.090000e+02
     vertex  1.150000e+02  1.060000e+02  4.090000e+02
     vertex  0.000000e+00  1.060000e+02  3.067500e+02
   endloop
 endfacet
 facet normal  0.000000e+00  1.000000e+00  0.000000e+00
   outer loop
     vertex  2.300000e+02  1.060000e+02  1.022500e+02
     vertex  1.150000e+02  1.060000e+02  0.000000e+00
     vertex  1.150000e+02  1.060000e+02  1.446134e+02
   endloop
 endfacet
 facet normal  0.000000e+00  1.000000e+00  0.000000e+00
   outer loop
     vertex  0.000000e+00  1.060000e+02  1.022500e+02
     vertex  0.000000e+00  1.060000e+02  2.045000e+02
     vertex  1.150000e+02  1.060000e+02  1.446134e+02
   endloop
 endfacet
 facet normal  0.000000e+00  1.000000e+00  0.000000e+00
   outer loop
     vertex  0.000000e+00  1.060000e+02  2.045000e+02
     vertex  0.000000e+00  1.060000e+02  3.067500e+02
     vertex  1.150000e+02  1.060000e+02  2.643866e+02
   endloop
 endfacet
 facet normal  0.000000e+00  1.000000e+00 -0.000000e+00
   outer loop
     vertex  1.150000e+02  1.060000e+02  0.000000e+00
     vertex  0.000000e+00  1.060000e+02  1.022500e+02
     vertex  1.150000e+02  1.060000e+02  1.446134e+02
   endloop
 endfacet
 facet normal  0.000000e+00  1.000000e+00  0.000000e+00
   outer loop
     vertex  1.150000e+02  1.060000e+02  4.090000e+02
     vertex  2.300000e+02  1.060000e+02  3.067500e+02
     vertex  1.150000e+02  1.060000e+02  2.643866e+02
   endloop
 endfacet
 facet normal  0.000000e+00  1.000000e+00  0.000000e+00
   outer loop
     vertex  1.150000e+02  1.060000e+02  2.643866e+02
     vertex  0.000000e+00  1.060000e+02  3.067500e+02
     vertex  1.150000e+02  1.060000e+02  4.090000e+02
   endloop
 endfacet
 facet normal  0.000000e+00  1.000000e+00  0.000000e+00
   outer loop
     vertex  1.150000e+02  1.060000e+02  1.446134e+02
     vertex  0.000000e+00  1.060000e+02  2.045000e+02
     vertex  1.150000e+02  1.060000e+02  2.643866e+02
   endloop
 endfacet
endsolid all_walls
